<?xml version="1.0" encoding="utf-8"?>
<!-- Generator: Adobe Illustrator 23.0.0, SVG Export Plug-In . SVG Version: 6.00 Build 0)  -->
<svg version="1.1" id="Layer_1" xmlns="http://www.w3.org/2000/svg" xmlns:xlink="http://www.w3.org/1999/xlink" x="0px" y="0px"
	 viewBox="0 0 771 286" style="enable-background:new 0 0 771 286;" xml:space="preserve">
<style type="text/css">
	.st0{fill:#FFFFFF;}
</style>
<g>
	<g>
		<path class="st0" d="M100.61,89.64c11.35,0,18.45-3.3,20.44-10.76l1.26-4.77c1.54-6.02,3.76-14.04-11.05-14.04h-10.2
			c0,0-39.56,0-61.38,0l-15.73,58.99c-4.59,17.59,5.09,28.85,20.91,29.71c3.98-15.01,9.81-36.86,15.74-59.13h30.41H100.61z
			 M124.96,0.94L84.15,0.95c-16.18,0-32.43,13.9-36.6,29.57c0,0,43.37,0,71.93,0c28.55,0,40.12,11.75,31.95,42.46
			c-8.17,30.71-28.3,46.23-55.77,46.23c-10.32,0-14.13,0.01-14.13,0.01c-1.34,4.99-4.39,16.49-7.87,29.56h13.81
			c43.83,0,80.33-29.28,88.32-59.13c0,0,4.49-16.91,4.53-17.05C191.6,30.22,170.72,0.94,124.96,0.94z"/>
		<g>
			<path class="st0" d="M348.84,36.09c-1.55,0-2.48,1.24-2.79,2.72l-5.87,20.92c-0.39,1.24-1.79,4.66-4.2,6.22
				c-1.87,1.17-3.34,1.56-5.36,1.56h-11.68c1.81-2.22,3.15-4.91,3.95-7.78l9.93-36.23c0.31-1.24-1.24-2.71-2.64-2.71
				c-1.56,0-2.49,1.24-2.8,2.71l-10.01,36.23c-0.39,1.24-1.79,4.66-4.2,6.22c-1.87,1.17-3.34,1.56-5.36,1.56h-13.36
				c1.8-2.22,3.15-4.91,3.94-7.78l5.8-20.92c0.31-1.24-1.24-2.72-2.65-2.72c-1.55,0-2.49,1.24-2.8,2.72l-5.87,20.92
				c-0.39,1.24-1.79,4.66-4.2,6.22c-1.87,1.17-3.35,1.56-5.36,1.56h-0.64h-2.45c1.8-2.22,3.16-4.91,3.94-7.78l5.8-20.92
				c0.31-1.24-1.24-2.72-2.64-2.72c-1.56,0-2.49,1.24-2.8,2.72l-5.88,20.92c-0.39,1.24-1.79,4.66-4.2,6.22
				c-1.87,1.17-3.34,1.56-5.35,1.56h-3.56l7.78-28.39c0.31-1.24-1.24-2.72-2.64-2.72c-1.55,0-2.49,1.25-2.79,2.72l-10.01,36.23
				c-0.39,1.24-1.79,4.67-4.21,6.22c-1.86,1.16-3.34,1.56-5.36,1.56h-21.86l10.66-38.79c0.32-1.24-1.24-2.72-2.64-2.72
				c-1.55,0-2.49,1.24-2.8,2.72l-11.21,40.81c-0.16,0.62,0.23,1.56,0.54,2.02c0.31,0.62,1.25,1.17,1.95,1.17h23.95
				c3.2,0,6.76-0.63,9.03-1.95c3.73-2.33,6.22-6.52,7.45-11.04l0.72-2.64h65.11c3.2,0,6.77-0.63,9.03-1.94
				c3.73-2.34,6.22-6.53,7.45-11.04l5.8-20.92C351.8,37.56,350.24,36.09,348.84,36.09z M318.18,85.11c0,4.44,6.54,4.44,6.54,0
				C324.72,80.69,318.18,80.69,318.18,85.11z"/>
			<g>
				<path class="st0" d="M663.21,47.12c-1.19-1.54-3.11-2.52-4.89-2.52c-3.05,0-5.4,2.16-6.14,5.66l-4.31,15.37
					c-0.03,0.08-3.91,14.69-3.91,14.69c-0.62,1.98-2.61,6.38-5.51,8.26c-2.41,1.51-4.25,2.05-7.04,2.05c0,0-7.47,0-11.19,0
					c1.17-4.38,10.63-39.62,10.63-39.62c0.2-0.49,0.29-1.01,0.29-1.52c0-1.33-0.55-2.65-1.17-3.53c-1.01-1.41-2.84-2.36-4.54-2.36
					h-18.57c-4.79,0-10.29,0.47-14.83,3.93c-5.1,3.87-6.68,8.77-7.75,13.07l-6.33,23.48c-1.1,4.12-0.22,8.62,2.4,12.33
					c2.49,3.73,6.88,6.01,11.71,6.01c0,0,8.96,0,12.48,0c-0.63,2.32-1.46,5.41-1.46,5.41c0,0.03-2.41,4.53-2.41,4.53
					c-1.55,1.27-2.96,1.76-4.98,1.76h-20.45c-4.15,0-5.68,2.4-6.24,4.4c-0.1,0.43-0.14,0.86-0.14,1.29c0,1.47,0.53,2.94,1.47,4.13
					c1.04,1.29,2.4,1.99,3.85,1.99h19.51c4.62,0,9.54-0.52,14.39-4.43c4.51-3.74,6.12-7.65,7.26-12.74c0,0,1.18-4.41,1.71-6.33
					c2.5,0,12.23,0,12.23,0c5.72,0,11.18-1.2,14.63-3.2c5.68-3.56,9.99-9.89,12.17-17.87l4.62-17.43
					c0.01-0.04,3.52-12.78,3.52-12.78c0.08-0.34,0.12-0.66,0.12-0.98C664.35,49.13,663.95,48.07,663.21,47.12z M607.71,90.64
					c-2.43,0-13.54,0-13.54,0c-2.82,0.13-3.7-0.53-4.18-1.21c-0.61-0.86-0.47-2.02,0.08-4.11l6.46-23.47
					c0.01-0.04,2.65-4.88,2.65-4.88c1.47-1.15,3.29-1.67,5.46-1.55c0,0,9.06,0,12.59,0C616.1,59.57,608.39,88.12,607.71,90.64z"/>
				<path class="st0" d="M636.53,110.62c-3.43,0-6.9,2.39-6.9,6.97c0,4.6,3.48,7,6.9,7c3.43,0,6.9-2.4,6.9-7
					C643.43,113.01,639.96,110.62,636.53,110.62z"/>
				<path class="st0" d="M571.17,47.12c-1.19-1.54-3.12-2.52-4.88-2.52c-3.06,0-5.42,2.16-6.15,5.66l-4.31,15.37
					c-0.02,0.08-3.91,14.69-3.91,14.69c-0.62,1.98-2.62,6.38-5.51,8.26c-2.41,1.51-4.26,2.05-7.04,2.05c0,0-1.7,0-3.4,0
					c1.86-2.91,3.76-5.85,4.7-9.28l4.62-17.43c0.01-0.04,3.52-12.74,3.52-12.74c0.08-0.35,0.12-0.69,0.12-1.03
					c0-1.04-0.39-2.1-1.13-3.04c-1.2-1.54-3.11-2.52-4.89-2.52c-3.05,0-5.4,2.16-6.14,5.66l-4.32,15.37
					c-0.02,0.08-3.9,14.69-3.9,14.69c-0.62,1.98-2.61,6.38-5.51,8.26c-2.41,1.51-4.25,2.05-7.04,2.05c0,0-5.07,0-6.57,0
					c1.86-2.91,3.77-5.85,4.7-9.28l4.61-17.43c0.02-0.04,3.51-12.74,3.51-12.74c0.08-0.35,0.12-0.69,0.12-1.03
					c0-1.04-0.38-2.1-1.12-3.04c-1.2-1.54-3.12-2.52-4.89-2.52c-3.07,0-5.41,2.16-6.15,5.66l-4.32,15.37
					c-0.02,0.08-3.9,14.69-3.9,14.69c-0.62,1.98-2.61,6.38-5.51,8.26c-2.41,1.51-4.25,2.05-7.04,2.05c0,0-4.58,0-5.49,0h-1.5
					c1.66-2.71,2.99-5.83,3.93-9.25l4.33-13.37c0.38-1.39,0.57-2.79,0.57-4.2c0-3.22-0.99-6.49-2.97-9.76c-2-3.49-6.86-7.56-14-7.56
					h-23.23c-3.16,0-6.21,0.38-8.86,1.06l6.7-20.79c0.09-0.36,0.13-0.69,0.13-1.03c0-1.04-0.38-2.1-1.13-3.04
					c-1.19-1.53-3.12-2.52-4.89-2.52c-3.05,0-5.4,2.16-6.14,5.66l-17.92,55.23c-0.62,1.98-2.61,6.39-5.51,8.26
					c-2.41,1.5-4.26,2.04-7.04,2.04l-6.99,0.03c0.34-1.31,0.74-2.77,1.16-4.37c0.54-1.94,9.71-36.51,9.92-37.37
					c1.08-4.33-1.85-5.69-6.6-5.69c-1.8,0-15.52,0.01-15.52,0.01h-3.09c-4.65,0-9.64,0.53-14.56,4.39
					c-4.63,3.6-5.74,7.66-7.04,12.37l-0.07,0.25c0,0.02-6.05,22.9-6.06,22.93c-1.23,5.08-0.52,8.97,2.41,13.01
					c2.73,3.82,6.59,5.68,11.81,5.68l165.45-0.18c5.71,0,11.18-1.2,14.63-3.2c5.68-3.56,9.99-9.89,12.17-17.87l4.61-17.43
					c0.01-0.04,3.52-12.74,3.52-12.74C572.51,49.81,572.15,48.39,571.17,47.12z M368.85,89.79c-0.66-0.93-0.5-1.82,0.06-4.2
					l6.52-23.71c0.59-2.49,0.97-3.53,2.61-4.8c1.82-1.42,3.12-1.9,5.12-1.9h13.92l-6.57,24.65l0,0c-0.42,1.49-0.8,2.91-1.13,4.26
					l-1.95,7.31h-14.82C370.73,91.4,369.81,91.01,368.85,89.79z M479.66,67.14c0,0-4.41,13.36-4.44,13.45
					c-0.73,2.3-2.75,6.69-5.77,8.64c-2.49,1.55-4.49,2.13-7.36,2.13c0,0-8.82,0-19.29,0h-14.02c0.57-2.11,1.56-5.8,1.56-5.8
					l5.77-17.75c0.45-1.91,2.41-6.42,5.64-8.44c2.66-1.77,4.6-2.11,7.24-2.11l23.78,0.02c4.72,0,6.04,1.56,6.63,2.75
					c0.61,1.28,0.96,2.17,0.96,3.37C480.35,64.36,480.14,65.49,479.66,67.14z"/>
			</g>
		</g>
	</g>
	<g>
		<g>
			<g>
				<polygon class="st0" points="540.52,214.91 529.02,203.37 517.34,214.91 529.02,226.51 				"/>
			</g>
			<g>
				<rect x="284.11" y="268.65" class="st0" width="16.31" height="16.41"/>
			</g>
			<g>
				<path class="st0" d="M749,210.67c-28.27,0-49.73,34.38-49.73,34.38h-8.65c-3.21-8.96-8.42-17.18-15.54-24.65l-11.72,11.39
					c13.71,14.24,17.94,33.18,12.32,53.27h16.9c2.16-9.36,2.55-18.57,1.17-27.35c1.46,1.72,2.66,2.4,4.14,2.4H749
					C749,260.11,749,217.64,749,210.67z M734.55,245.04h-15.97c0,0,6.95-9.83,15.97-14.13
					C734.55,230.92,734.55,239.73,734.55,245.04z"/>
			</g>
			<g>
				<path class="st0" d="M660.41,245.04c-2.95-10.92-8.71-20.99-17.17-29.85h-66.5c2.23-16.67,10.65-31.51,25.43-40.88h-20.74
					c-11.75,11.37-18.83,25.35-20.71,40.88c-0.63,4.91-0.72,9.97-0.26,15.07h74.26c3.75,4.57,6.5,9.54,8.45,14.78h-84.25
					c-3.25-8.96-8.39-17.18-15.53-24.65l-11.81,11.39c13.66,14.24,18.01,33.18,12.29,53.27h17.01c2.13-9.63,2.51-18.94,1.13-27.91
					c1.43,2.11,2.83,2.97,4.48,2.97h96.2C662.51,254.93,661.73,249.94,660.41,245.04z"/>
			</g>
			<g>
				<rect x="486.79" y="174.32" class="st0" width="14.45" height="85.87"/>
			</g>
			<g>
				<path class="st0" d="M462.81,174.32v70.73c-3.32,0-6.25-1.3-7.24-1.74c-8.23-26.09-29.63-48.15-70.94-49.81v-19.18h-14.45v70.73
					h-15.54v-70.73H340.2v85.87h118.93c-0.15-0.85-0.23-1.58-0.36-2.4c1.37,1.64,2.58,2.32,4.05,2.4h14.46v-85.87H462.81z
					 M384.63,245.04v-35.11c27.14,1.39,46.13,13.96,54.12,35.11H384.63z"/>
			</g>
			<g>
				<path class="st0" d="M285.96,260.19h0.16c0-0.08-0.05-0.08-0.16-0.08V260.19z"/>
			</g>
			<g>
				<path class="st0" d="M315.34,174.32v70.73h-14.92v-37.3h-14.46v35.73c-21.96-3.98-37.24-16.52-43.94-35.73h-17.14
					c6.74,25.25,25.28,47.33,61.08,52.36c5.65,0.49,14.46,0.08,14.46,0.08v-2.4c1.4,1.64,2.55,2.32,3.93,2.4h25.43v-85.87H315.34z"
					/>
			</g>
		</g>
	</g>
</g>
</svg>
