<?xml version="1.0" encoding="utf-8"?>
<!-- Generator: Adobe Illustrator 23.0.0, SVG Export Plug-In . SVG Version: 6.00 Build 0)  -->
<svg version="1.1" id="Layer_1" xmlns="http://www.w3.org/2000/svg" xmlns:xlink="http://www.w3.org/1999/xlink" x="0px" y="0px"
	 viewBox="0 0 1000 388" style="enable-background:new 0 0 1000 388;" xml:space="preserve">
<style type="text/css">
	.st0{fill:#E87D1E;}
</style>
<g>
	<g>
		<path class="st0" d="M118.18,123.37c15.05,0,24.46-4.38,27.1-14.27l1.68-6.33c2.04-7.98,4.98-18.61-14.66-18.61h-13.52
			c0,0-52.46,0-81.39,0l-20.86,78.23c-6.09,23.33,6.75,38.26,27.73,39.39c5.28-19.9,13.01-48.88,20.87-78.41h40.33H118.18z
			 M150.47,5.73L96.35,5.74c-21.45,0-43.01,18.43-48.54,39.21c0,0,57.51,0,95.38,0c37.86,0,53.21,15.58,42.37,56.3
			c-10.83,40.72-37.53,61.31-73.96,61.31c-13.69,0-18.74,0.02-18.74,0.02c-1.77,6.62-5.83,21.87-10.43,39.19h18.32
			c58.12,0,106.53-38.82,117.12-78.41c0,0,5.96-22.43,6-22.6C238.84,44.57,211.15,5.73,150.47,5.73z"/>
		<g>
			<path d="M447.35,52.35c-2.06,0-3.29,1.64-3.71,3.6l-7.79,27.75c-0.52,1.65-2.37,6.18-5.57,8.25c-2.47,1.55-4.43,2.07-7.1,2.07
				h-15.48c2.4-2.95,4.18-6.51,5.23-10.32l13.16-48.05c0.42-1.64-1.65-3.6-3.5-3.6c-2.06,0-3.3,1.65-3.71,3.6l-13.27,48.05
				c-0.52,1.65-2.37,6.18-5.57,8.25c-2.47,1.55-4.43,2.07-7.11,2.07h-17.72c2.39-2.95,4.18-6.51,5.23-10.32l7.69-27.75
				c0.41-1.64-1.65-3.6-3.51-3.6c-2.06,0-3.3,1.64-3.72,3.6l-7.78,27.75c-0.52,1.65-2.38,6.18-5.57,8.25
				c-2.47,1.55-4.44,2.07-7.11,2.07h-0.85h-3.25c2.38-2.95,4.19-6.51,5.23-10.32l7.69-27.75c0.41-1.64-1.65-3.6-3.51-3.6
				c-2.07,0-3.3,1.64-3.71,3.6l-7.8,27.75c-0.51,1.65-2.37,6.18-5.57,8.25c-2.47,1.55-4.43,2.07-7.1,2.07h-4.72l10.32-37.65
				c0.41-1.64-1.65-3.6-3.51-3.6c-2.06,0-3.3,1.65-3.71,3.6l-13.28,48.05c-0.52,1.65-2.37,6.19-5.58,8.25
				c-2.47,1.54-4.43,2.06-7.1,2.06h-28.98l14.14-51.45c0.42-1.65-1.65-3.6-3.51-3.6c-2.06,0-3.3,1.65-3.71,3.6l-14.87,54.12
				c-0.21,0.82,0.31,2.06,0.72,2.68c0.42,0.82,1.66,1.55,2.58,1.55h31.76c4.24,0,8.96-0.83,11.97-2.58
				c4.95-3.09,8.24-8.65,9.88-14.64l0.96-3.5h86.34c4.24,0,8.97-0.83,11.97-2.57c4.95-3.1,8.25-8.66,9.89-14.64l7.7-27.75
				C451.27,54.3,449.21,52.35,447.35,52.35z M406.69,117.35c0,5.89,8.68,5.89,8.68,0C415.37,111.49,406.69,111.49,406.69,117.35z"/>
			<g>
				<path d="M864.24,66.98c-1.58-2.04-4.13-3.34-6.48-3.34c-4.05,0-7.16,2.87-8.15,7.51l-5.72,20.39
					c-0.04,0.1-5.18,19.48-5.18,19.48c-0.82,2.62-3.46,8.46-7.31,10.95c-3.19,2-5.63,2.71-9.33,2.71c0,0-9.91,0-14.84,0
					c1.55-5.81,14.09-52.54,14.09-52.54c0.27-0.65,0.39-1.34,0.39-2.02c0-1.76-0.73-3.52-1.55-4.68c-1.34-1.87-3.76-3.13-6.02-3.13
					h-24.63c-6.36,0-13.65,0.62-19.66,5.21c-6.76,5.14-8.85,11.63-10.28,17.33l-8.4,31.13c-1.45,5.47-0.29,11.43,3.18,16.34
					c3.3,4.95,9.12,7.97,15.53,7.97c0,0,11.89,0,16.55,0c-0.83,3.08-1.93,7.17-1.93,7.17c0,0.04-3.2,6.01-3.2,6.01
					c-2.05,1.69-3.92,2.33-6.6,2.33h-27.11c-5.51,0-7.53,3.18-8.27,5.83c-0.13,0.57-0.18,1.14-0.18,1.71c0,1.95,0.7,3.9,1.95,5.47
					c1.38,1.71,3.18,2.64,5.1,2.64h25.87c6.12,0,12.66-0.69,19.09-5.87c5.98-4.96,8.12-10.14,9.63-16.9c0,0,1.57-5.85,2.26-8.39
					c3.32,0,16.22,0,16.22,0c7.58,0,14.82-1.58,19.4-4.24c7.53-4.72,13.25-13.12,16.14-23.69l6.12-23.11
					c0.01-0.05,4.67-16.95,4.67-16.95c0.11-0.45,0.16-0.87,0.16-1.3C865.75,69.64,865.22,68.24,864.24,66.98z M790.63,124.68
					c-3.23,0-17.95,0-17.95,0c-3.74,0.17-4.9-0.71-5.54-1.6c-0.81-1.15-0.62-2.67,0.1-5.45l8.57-31.12
					c0.01-0.05,3.51-6.48,3.51-6.48c1.95-1.52,4.36-2.22,7.24-2.06c0,0,12.02,0,16.7,0C801.76,83.49,791.54,121.34,790.63,124.68z"
					/>
				<path d="M828.85,151.18c-4.55,0-9.16,3.17-9.16,9.25c0,6.1,4.61,9.28,9.16,9.28c4.54,0,9.15-3.18,9.15-9.28
					C838.01,154.35,833.4,151.18,828.85,151.18z"/>
				<path d="M742.18,66.98c-1.58-2.04-4.13-3.34-6.47-3.34c-4.06,0-7.18,2.87-8.16,7.51l-5.72,20.39
					c-0.03,0.1-5.18,19.48-5.18,19.48c-0.83,2.62-3.47,8.46-7.31,10.95c-3.2,2-5.64,2.71-9.33,2.71c0,0-2.26,0-4.51,0
					c2.47-3.86,4.99-7.75,6.23-12.31l6.12-23.11c0.01-0.05,4.66-16.89,4.66-16.89c0.11-0.47,0.16-0.91,0.16-1.36
					c0-1.38-0.52-2.78-1.5-4.03c-1.59-2.04-4.13-3.34-6.48-3.34c-4.05,0-7.16,2.87-8.14,7.51l-5.73,20.39
					c-0.02,0.1-5.18,19.48-5.18,19.48c-0.82,2.62-3.46,8.46-7.31,10.95c-3.19,2-5.63,2.71-9.34,2.71c0,0-6.73,0-8.71,0
					c2.47-3.86,4.99-7.75,6.24-12.31l6.11-23.11c0.02-0.05,4.66-16.89,4.66-16.89c0.11-0.47,0.16-0.91,0.16-1.36
					c0-1.38-0.51-2.78-1.48-4.03c-1.58-2.04-4.14-3.34-6.48-3.34c-4.07,0-7.17,2.87-8.16,7.51l-5.73,20.39
					c-0.02,0.1-5.17,19.48-5.17,19.48c-0.82,2.62-3.46,8.46-7.31,10.95c-3.2,2-5.64,2.71-9.33,2.71c0,0-6.07,0-7.28,0h-1.99
					c2.2-3.6,3.96-7.73,5.21-12.27l5.74-17.72c0.51-1.85,0.76-3.7,0.76-5.57c0-4.27-1.32-8.61-3.93-12.94
					c-2.65-4.63-9.09-10.03-18.57-10.03h-30.8c-4.19,0-8.23,0.5-11.75,1.4l8.88-27.57c0.11-0.48,0.17-0.91,0.17-1.37
					c0-1.38-0.5-2.78-1.49-4.03c-1.58-2.03-4.13-3.34-6.48-3.34c-4.04,0-7.17,2.87-8.14,7.5l-23.76,73.24
					c-0.82,2.63-3.46,8.47-7.31,10.96c-3.2,1.99-5.65,2.71-9.34,2.71l-9.27,0.04c0.46-1.73,0.98-3.68,1.54-5.79
					c0.71-2.57,12.87-48.41,13.16-49.56c1.44-5.75-2.45-7.55-8.75-7.55c-2.38,0-20.58,0.01-20.58,0.01h-4.09
					c-6.17,0-12.78,0.7-19.31,5.82c-6.14,4.78-7.62,10.16-9.34,16.4l-0.09,0.34c-0.01,0.02-8.03,30.36-8.04,30.4
					c-1.64,6.74-0.69,11.89,3.19,17.25c3.62,5.06,8.74,7.53,15.66,7.53l219.4-0.24c7.57,0,14.82-1.58,19.4-4.24
					c7.53-4.72,13.25-13.12,16.14-23.69l6.12-23.11c0.02-0.05,4.67-16.89,4.67-16.89C743.96,70.55,743.49,68.66,742.18,66.98z
					 M473.89,123.57c-0.88-1.24-0.66-2.42,0.09-5.56l8.65-31.45c0.78-3.3,1.29-4.67,3.46-6.37c2.42-1.88,4.14-2.52,6.8-2.52h18.46
					l-8.71,32.69l0,0c-0.55,1.97-1.06,3.86-1.5,5.65l-2.58,9.69h-19.66C476.38,125.7,475.17,125.18,473.89,123.57z M620.83,93.52
					c0,0-5.85,17.71-5.88,17.84c-0.97,3.05-3.65,8.88-7.65,11.46c-3.3,2.06-5.96,2.83-9.76,2.83c0,0-11.7,0-25.58,0h-18.59
					c0.75-2.8,2.07-7.69,2.07-7.69l7.65-23.53c0.59-2.53,3.19-8.51,7.48-11.19c3.53-2.35,6.1-2.8,9.6-2.8l31.53,0.03
					c6.26,0,8.01,2.07,8.79,3.64c0.81,1.69,1.27,2.88,1.27,4.47C621.75,89.84,621.47,91.34,620.83,93.52z"/>
			</g>
		</g>
	</g>
	<g>
		<g>
			<g>
				<polygon points="701.53,289.48 686.28,274.18 670.8,289.48 686.28,304.87 				"/>
			</g>
			<g>
				<rect x="361.51" y="360.74" width="21.63" height="21.76"/>
			</g>
			<g>
				<path d="M978,283.86c-37.48,0-65.95,45.59-65.95,45.59h-11.47c-4.26-11.88-11.16-22.79-20.61-32.69l-15.55,15.11
					c18.18,18.88,23.79,44,16.34,70.65h22.41c2.87-12.42,3.38-24.62,1.55-36.27c1.94,2.28,3.52,3.19,5.5,3.19H978
					C978,349.42,978,293.11,978,283.86z M958.84,329.44h-21.18c0,0,9.21-13.04,21.18-18.73
					C958.84,310.71,958.84,322.4,958.84,329.44z"/>
			</g>
			<g>
				<path d="M860.53,329.44c-3.92-14.48-11.55-27.84-22.77-39.58h-88.19c2.96-22.1,14.13-41.79,33.72-54.21h-27.5
					c-15.58,15.07-24.97,33.62-27.46,54.21c-0.84,6.52-0.96,13.22-0.35,19.98h98.48c4.97,6.05,8.62,12.65,11.2,19.6H725.94
					c-4.31-11.88-11.13-22.79-20.6-32.69l-15.66,15.11c18.12,18.88,23.88,44,16.3,70.65h22.56c2.82-12.76,3.33-25.11,1.5-37.02
					c1.9,2.8,3.76,3.93,5.94,3.93h127.57C863.31,342.56,862.27,335.94,860.53,329.44z"/>
			</g>
			<g>
				<rect x="630.28" y="235.65" width="19.16" height="113.88"/>
			</g>
			<g>
				<path d="M598.49,235.65v93.79c-4.4,0-8.29-1.72-9.6-2.3c-10.92-34.6-39.29-63.85-94.07-66.06v-25.43h-19.16v93.79h-20.61v-93.79
					h-19.16v113.88H593.6c-0.19-1.13-0.3-2.09-0.48-3.18c1.82,2.17,3.42,3.08,5.37,3.18h19.17V235.65H598.49z M494.82,329.44v-46.56
					c35.98,1.85,61.17,18.51,71.76,46.56H494.82z"/>
			</g>
			<g>
				<path d="M363.96,349.53h0.21c0-0.11-0.07-0.11-0.21-0.11V349.53z"/>
			</g>
			<g>
				<path d="M402.93,235.65v93.79h-19.78v-49.46h-19.18v47.38c-29.12-5.28-49.38-21.91-58.27-47.38h-22.73
					c8.94,33.48,33.52,62.76,81,69.44c7.49,0.65,19.18,0.11,19.18,0.11v-3.18c1.85,2.17,3.38,3.08,5.21,3.18h33.72V235.65H402.93z"
					/>
			</g>
		</g>
	</g>
</g>
</svg>
