<?xml version="1.0" encoding="utf-8"?>
<!-- Generator: Adobe Illustrator 23.0.0, SVG Export Plug-In . SVG Version: 6.00 Build 0)  -->
<svg version="1.1" id="Layer_1" xmlns="http://www.w3.org/2000/svg" xmlns:xlink="http://www.w3.org/1999/xlink" x="0px" y="0px"
	 viewBox="0 0 1000 388" style="enable-background:new 0 0 1000 388;" xml:space="preserve">
<style type="text/css">
	.st0{display:none;}
	.st1{display:inline;}
	.st2{fill:#E87D1E;}
</style>
<g class="st0">
	<g class="st1">
		<path class="st2" d="M118.18,123.37c15.05,0,24.46-4.38,27.1-14.27l1.68-6.33c2.04-7.98,4.98-18.61-14.66-18.61h-13.52
			c0,0-52.46,0-81.39,0l-20.86,78.23c-6.09,23.33,6.75,38.26,27.73,39.39c5.28-19.9,13.01-48.88,20.87-78.41h40.33H118.18z
			 M150.47,5.73L96.35,5.74c-21.45,0-43.01,18.43-48.54,39.21c0,0,57.51,0,95.38,0c37.86,0,53.21,15.58,42.37,56.3
			c-10.83,40.72-37.53,61.31-73.96,61.31c-13.69,0-18.74,0.02-18.74,0.02c-1.77,6.62-5.83,21.87-10.43,39.19h18.32
			c58.12,0,106.53-38.82,117.12-78.41c0,0,5.96-22.43,6-22.6C238.84,44.57,211.15,5.73,150.47,5.73z"/>
		<g>
			<path d="M447.35,52.35c-2.06,0-3.29,1.64-3.71,3.6l-7.79,27.75c-0.52,1.65-2.37,6.18-5.57,8.25c-2.47,1.55-4.43,2.07-7.1,2.07
				h-15.48c2.4-2.95,4.18-6.51,5.23-10.32l13.16-48.05c0.42-1.64-1.65-3.6-3.5-3.6c-2.06,0-3.3,1.65-3.71,3.6l-13.27,48.05
				c-0.52,1.65-2.37,6.18-5.57,8.25c-2.47,1.55-4.43,2.07-7.11,2.07h-17.72c2.39-2.95,4.18-6.51,5.23-10.32l7.69-27.75
				c0.41-1.64-1.65-3.6-3.51-3.6c-2.06,0-3.3,1.64-3.72,3.6l-7.78,27.75c-0.52,1.65-2.38,6.18-5.57,8.25
				c-2.47,1.55-4.44,2.07-7.11,2.07h-0.85h-3.25c2.38-2.95,4.19-6.51,5.23-10.32l7.69-27.75c0.41-1.64-1.65-3.6-3.51-3.6
				c-2.07,0-3.3,1.64-3.71,3.6l-7.8,27.75c-0.51,1.65-2.37,6.18-5.57,8.25c-2.47,1.55-4.43,2.07-7.1,2.07h-4.72l10.32-37.65
				c0.41-1.64-1.65-3.6-3.51-3.6c-2.06,0-3.3,1.65-3.71,3.6l-13.28,48.05c-0.52,1.65-2.37,6.19-5.58,8.25
				c-2.47,1.54-4.43,2.06-7.1,2.06h-28.98l14.14-51.45c0.42-1.65-1.65-3.6-3.51-3.6c-2.06,0-3.3,1.65-3.71,3.6l-14.87,54.12
				c-0.21,0.82,0.31,2.06,0.72,2.68c0.42,0.82,1.66,1.55,2.58,1.55h31.76c4.24,0,8.96-0.83,11.97-2.58
				c4.95-3.09,8.24-8.65,9.88-14.64l0.96-3.5h86.34c4.24,0,8.97-0.83,11.97-2.57c4.95-3.1,8.25-8.66,9.89-14.64l7.7-27.75
				C451.27,54.3,449.21,52.35,447.35,52.35z M406.69,117.35c0,5.89,8.68,5.89,8.68,0C415.37,111.49,406.69,111.49,406.69,117.35z"/>
			<g>
				<path d="M864.24,66.98c-1.58-2.04-4.13-3.34-6.48-3.34c-4.05,0-7.16,2.87-8.15,7.51l-5.72,20.39
					c-0.04,0.1-5.18,19.48-5.18,19.48c-0.82,2.62-3.46,8.46-7.31,10.95c-3.19,2-5.63,2.71-9.33,2.71c0,0-9.91,0-14.84,0
					c1.55-5.81,14.09-52.54,14.09-52.54c0.27-0.65,0.39-1.34,0.39-2.02c0-1.76-0.73-3.52-1.55-4.68c-1.34-1.87-3.76-3.13-6.02-3.13
					h-24.63c-6.36,0-13.65,0.62-19.66,5.21c-6.76,5.14-8.85,11.63-10.28,17.33l-8.4,31.13c-1.45,5.47-0.29,11.43,3.18,16.34
					c3.3,4.95,9.12,7.97,15.53,7.97c0,0,11.89,0,16.55,0c-0.83,3.08-1.93,7.17-1.93,7.17c0,0.04-3.2,6.01-3.2,6.01
					c-2.05,1.69-3.92,2.33-6.6,2.33h-27.11c-5.51,0-7.53,3.18-8.27,5.83c-0.13,0.57-0.18,1.14-0.18,1.71c0,1.95,0.7,3.9,1.95,5.47
					c1.38,1.71,3.18,2.64,5.1,2.64h25.87c6.12,0,12.66-0.69,19.09-5.87c5.98-4.96,8.12-10.14,9.63-16.9c0,0,1.57-5.85,2.26-8.39
					c3.32,0,16.22,0,16.22,0c7.58,0,14.82-1.58,19.4-4.24c7.53-4.72,13.25-13.12,16.14-23.69l6.12-23.11
					c0.01-0.05,4.67-16.95,4.67-16.95c0.11-0.45,0.16-0.87,0.16-1.3C865.75,69.64,865.22,68.24,864.24,66.98z M790.63,124.68
					c-3.23,0-17.95,0-17.95,0c-3.74,0.17-4.9-0.71-5.54-1.6c-0.81-1.15-0.62-2.67,0.1-5.45l8.57-31.12
					c0.01-0.05,3.51-6.48,3.51-6.48c1.95-1.52,4.36-2.22,7.24-2.06c0,0,12.02,0,16.7,0C801.76,83.49,791.54,121.34,790.63,124.68z"
					/>
				<path d="M828.85,151.18c-4.55,0-9.16,3.17-9.16,9.25c0,6.1,4.61,9.28,9.16,9.28c4.54,0,9.15-3.18,9.15-9.28
					C838.01,154.35,833.4,151.18,828.85,151.18z"/>
				<path d="M742.18,66.98c-1.58-2.04-4.13-3.34-6.47-3.34c-4.06,0-7.18,2.87-8.16,7.51l-5.72,20.39
					c-0.03,0.1-5.18,19.48-5.18,19.48c-0.83,2.62-3.47,8.46-7.31,10.95c-3.2,2-5.64,2.71-9.33,2.71c0,0-2.26,0-4.51,0
					c2.47-3.86,4.99-7.75,6.23-12.31l6.12-23.11c0.01-0.05,4.66-16.89,4.66-16.89c0.11-0.47,0.16-0.91,0.16-1.36
					c0-1.38-0.52-2.78-1.5-4.03c-1.59-2.04-4.13-3.34-6.48-3.34c-4.05,0-7.16,2.87-8.14,7.51l-5.73,20.39
					c-0.02,0.1-5.18,19.48-5.18,19.48c-0.82,2.62-3.46,8.46-7.31,10.95c-3.19,2-5.63,2.71-9.34,2.71c0,0-6.73,0-8.71,0
					c2.47-3.86,4.99-7.75,6.24-12.31l6.11-23.11c0.02-0.05,4.66-16.89,4.66-16.89c0.11-0.47,0.16-0.91,0.16-1.36
					c0-1.38-0.51-2.78-1.48-4.03c-1.58-2.04-4.14-3.34-6.48-3.34c-4.07,0-7.17,2.87-8.16,7.51l-5.73,20.39
					c-0.02,0.1-5.17,19.48-5.17,19.48c-0.82,2.62-3.46,8.46-7.31,10.95c-3.2,2-5.64,2.71-9.33,2.71c0,0-6.07,0-7.28,0h-1.99
					c2.2-3.6,3.96-7.73,5.21-12.27l5.74-17.72c0.51-1.85,0.76-3.7,0.76-5.57c0-4.27-1.32-8.61-3.93-12.94
					c-2.65-4.63-9.09-10.03-18.57-10.03h-30.8c-4.19,0-8.23,0.5-11.75,1.4l8.88-27.57c0.11-0.48,0.17-0.91,0.17-1.37
					c0-1.38-0.5-2.78-1.49-4.03c-1.58-2.03-4.13-3.34-6.48-3.34c-4.04,0-7.17,2.87-8.14,7.5l-23.76,73.24
					c-0.82,2.63-3.46,8.47-7.31,10.96c-3.2,1.99-5.65,2.71-9.34,2.71l-9.27,0.04c0.46-1.73,0.98-3.68,1.54-5.79
					c0.71-2.57,12.87-48.41,13.16-49.56c1.44-5.75-2.45-7.55-8.75-7.55c-2.38,0-20.58,0.01-20.58,0.01h-4.09
					c-6.17,0-12.78,0.7-19.31,5.82c-6.14,4.78-7.62,10.16-9.34,16.4l-0.09,0.34c-0.01,0.02-8.03,30.36-8.04,30.4
					c-1.64,6.74-0.69,11.89,3.19,17.25c3.62,5.06,8.74,7.53,15.66,7.53l219.4-0.24c7.57,0,14.82-1.58,19.4-4.24
					c7.53-4.72,13.25-13.12,16.14-23.69l6.12-23.11c0.02-0.05,4.67-16.89,4.67-16.89C743.96,70.55,743.49,68.66,742.18,66.98z
					 M473.89,123.57c-0.88-1.24-0.66-2.42,0.09-5.56l8.65-31.45c0.78-3.3,1.29-4.67,3.46-6.37c2.42-1.88,4.14-2.52,6.8-2.52h18.46
					l-8.71,32.69l0,0c-0.55,1.97-1.06,3.86-1.5,5.65l-2.58,9.69h-19.66C476.38,125.7,475.17,125.18,473.89,123.57z M620.83,93.52
					c0,0-5.85,17.71-5.88,17.84c-0.97,3.05-3.65,8.88-7.65,11.46c-3.3,2.06-5.96,2.83-9.76,2.83c0,0-11.7,0-25.58,0h-18.59
					c0.75-2.8,2.07-7.69,2.07-7.69l7.65-23.53c0.59-2.53,3.19-8.51,7.48-11.19c3.53-2.35,6.1-2.8,9.6-2.8l31.53,0.03
					c6.26,0,8.01,2.07,8.79,3.64c0.81,1.69,1.27,2.88,1.27,4.47C621.75,89.84,621.47,91.34,620.83,93.52z"/>
			</g>
		</g>
	</g>
	<g class="st1">
		<g>
			<g>
				<polygon points="701.53,289.48 686.28,274.18 670.8,289.48 686.28,304.87 				"/>
			</g>
			<g>
				<rect x="361.51" y="360.74" width="21.63" height="21.76"/>
			</g>
			<g>
				<path d="M978,283.86c-37.48,0-65.95,45.59-65.95,45.59h-11.47c-4.26-11.88-11.16-22.79-20.61-32.69l-15.55,15.11
					c18.18,18.88,23.79,44,16.34,70.65h22.41c2.87-12.42,3.38-24.62,1.55-36.27c1.94,2.28,3.52,3.19,5.5,3.19H978
					C978,349.42,978,293.11,978,283.86z M958.84,329.44h-21.18c0,0,9.21-13.04,21.18-18.73
					C958.84,310.71,958.84,322.4,958.84,329.44z"/>
			</g>
			<g>
				<path d="M860.53,329.44c-3.92-14.48-11.55-27.84-22.77-39.58h-88.19c2.96-22.1,14.13-41.79,33.72-54.21h-27.5
					c-15.58,15.07-24.97,33.62-27.46,54.21c-0.84,6.52-0.96,13.22-0.35,19.98h98.48c4.97,6.05,8.62,12.65,11.2,19.6H725.94
					c-4.31-11.88-11.13-22.79-20.6-32.69l-15.66,15.11c18.12,18.88,23.88,44,16.3,70.65h22.56c2.82-12.76,3.33-25.11,1.5-37.02
					c1.9,2.8,3.76,3.93,5.94,3.93h127.57C863.31,342.56,862.27,335.94,860.53,329.44z"/>
			</g>
			<g>
				<rect x="630.28" y="235.65" width="19.16" height="113.88"/>
			</g>
			<g>
				<path d="M598.49,235.65v93.79c-4.4,0-8.29-1.72-9.6-2.3c-10.92-34.6-39.29-63.85-94.07-66.06v-25.43h-19.16v93.79h-20.61v-93.79
					h-19.16v113.88H593.6c-0.19-1.13-0.3-2.09-0.48-3.18c1.82,2.17,3.42,3.08,5.37,3.18h19.17V235.65H598.49z M494.82,329.44v-46.56
					c35.98,1.85,61.17,18.51,71.76,46.56H494.82z"/>
			</g>
			<g>
				<path d="M363.96,349.53h0.21c0-0.11-0.07-0.11-0.21-0.11V349.53z"/>
			</g>
			<g>
				<path d="M402.93,235.65v93.79h-19.78v-49.46h-19.18v47.38c-29.12-5.28-49.38-21.91-58.27-47.38h-22.73
					c8.94,33.48,33.52,62.76,81,69.44c7.49,0.65,19.18,0.11,19.18,0.11v-3.18c1.85,2.17,3.38,3.08,5.21,3.18h33.72V235.65H402.93z"
					/>
			</g>
		</g>
	</g>
</g>
<g>
	<g>
		<g>
			<path d="M624.05,99.36c-1.24,4.5-2.15,7.98-6.18,11.12c-4.15,3.26-8.31,3.81-12.8,3.81h-15.15c-0.11,0-5.5,19.99-5.5,19.99
				c-0.57,2.13-2.36,3.14-4.72,2.59c-1.9-0.45-3.15-2.81-2.69-4.38l17.73-66.68c0.34-1.13,0.79-2.24,1.81-3.04
				c0.89-0.79,2.24-0.79,3.25-0.79h18.07c4.5,0,7.64,1.58,9.88,4.72c2.36,3.25,3.15,6.4,2.03,11L624.05,99.36z M621.91,71.52
				c-1.22-1.57-2.58-2.13-4.82-2.13h-15.28l-9.98,37.49h15.26c2.25,0,3.82-0.55,5.84-2.13c2.03-1.58,2.47-3.03,3.02-5.4l6.19-22.45
				C622.7,74.55,623.03,73.1,621.91,71.52z"/>
			<path d="M641.11,99.25c-0.44,1.91-1.01,3.37-0.22,5.16c0.66,1.58,2.13,2.24,3.15,3.04c1.68,1.23,1.45,3.71,1.34,3.93
				c-1.34,3.36-4.27,2.91-4.71,2.69c-3.37-1.11-5.28-3.47-6.3-5.16c-1.68-3.14-2.02-6.51-1.12-9.77L648.51,42
				c0.57-2.02,2.59-2.92,4.61-2.46c2.13,0.55,3.24,2.7,2.8,4.37L641.11,99.25z"/>
			<path d="M689.35,110.81c-0.46,1.24-0.69,1.92-1.81,2.7c-0.9,0.55-1.91,0.67-2.93,0.67h-18.74c-3.04,0-6.97-1.57-9.22-4.72
				c-2.24-3.13-3.03-6.39-2.01-10.21l9.22-34.69c0.55-2.03,3.02-3.25,4.71-2.8c1.9,0.67,3.24,2.69,2.68,4.72l-8.74,32.78
				c-0.56,2.25-0.91,4.04,0.22,5.5c1.13,1.46,2.92,1.9,5.16,1.9h14.6l11.22-41.98c0.57-2.24,2.91-3.26,4.72-2.8
				c1.91,0.45,3.25,2.69,2.69,4.6L689.35,110.81z"/>
			<path d="M733.31,70.74c-2.69-1.24-4.72-1.34-7.64-1.24c-3.71,0.12-7.96,2.81-9.1,5.95c-0.44,1.13-0.89,3.38,0.46,4.5L728.7,90.6
				c3.15,2.81,3.49,7.08,2.81,10.55c-1.69,7.75-10.89,13.13-18.53,13.13c-5.05-0.11-7.74-0.89-10.89-1.91
				c-1.8-0.56-3.03-3.25-2.25-5.05c0.57-1.12,2.15-3.15,4.84-2.13c2.46,1.01,3.36,1.56,9.65,1.34c3.59-0.11,7.63-2.47,9.2-5.5
				c0.68-1.12,0.9-3.93-0.22-4.94l-11.22-10.33c-3.25-2.91-4.49-7.18-3.47-10.77c2.81-10.56,12.68-13.13,18.51-13.13
				c4.16,0,5.74,0.79,8.53,1.69c2.25,0.89,2.93,3.25,2.25,5.04C737.23,70.51,734.66,71.41,733.31,70.74z"/>
			<path d="M229.09,62.75c0.01-0.02,0.03-0.02,0.05-0.04c0.02-0.02,0.05-0.04,0.07-0.06L229.09,62.75z M287.48,70.06
				c-4.47-6.26-10.79-9.31-19.35-9.31h-31.65c-2.01,0-5.05,0-7.33,1.96c-2.3,1.83-3.3,4.32-3.95,6.53
				c-0.03,0.07-31.09,116.88-31.09,116.88c-0.55,1.94-0.16,4.34,1.1,6.49c1.29,2.19,3.3,3.75,5.51,4.27
				c5.42,1.29,9.97-1.27,11.3-6.35c3.07-11.35,7.54-27.84,9.05-33.09h24.66c7.67,0,15.88-0.88,23.98-7.22
				c7.6-5.92,9.45-12.62,11.59-20.37l0.11-0.42c0.01-0.02,10.03-37.96,10.05-38.01C293.46,83.08,292.28,76.69,287.48,70.06z
				 M273.14,88.76l-10.82,39.32c-0.99,4.18-1.63,5.93-4.42,8.09c-3.07,2.39-5.26,3.2-8.64,3.2h-23.43l16.13-60.55h24.78
				c3.25,0,4.81,0.67,6.44,2.76C274.36,83.22,274.08,84.74,273.14,88.76z M362.13,68.99c-5.49-5.5-12.31-8.63-18.73-8.63
				c-12.74,0-21.87,2.62-28.75,8.23c-6.92,5.45-11.7,13.88-15,26.49c0-0.02-7.07,26.12-7.07,26.12c-1.67,6.26-0.62,14.05,2.76,20.35
				c5.03,9.39,14.69,15.69,24.08,15.69c15.96,0,26.39-4.04,33.81-13.12c4-5.01,7.19-12.06,9.73-21.59l6.89-26.15
				C372.41,86.69,369.6,76.7,362.13,68.99z M351.16,95.08l-6.88,26.15c-1.34,5.38-3.51,9.5-6.61,12.6
				c-3.42,3.41-8.37,5.16-14.71,5.16c-6.54,0-8.15-0.79-11.47-5.58c-1.41-2.13-1.43-5.59-0.01-10.87l6.88-26.15
				c1.66-5.61,4.12-9.93,7.53-13.15c3.07-2.75,8.31-4.41,13.99-4.41c5.57,0,8.02,1.04,10.51,4.44
				C351.93,85.46,353.11,88.43,351.16,95.08z M430.62,60.75l-5.43,0.01l-7.91,0.01c-13.03,0-30.01,6.52-34.9,24.9
				c-2.08,7.4,0.61,15.82,6.86,21.43c-0.02-0.02,19.63,18.06,19.63,18.06c0.78,0.7,0.71,4.15-0.07,5.46l-0.03,0.07l-0.04,0.07
				c-2.37,4.55-8.57,8.26-13.86,8.26L382,139.02l-5.15,0.01c-6.45,0-10.79,4.69-10.79,9.07c0,4.7,3.3,9.56,8.82,9.56h9.51h8.13
				c14.25,0,31.68-10.05,34.93-25c1.65-8.6-0.43-16.2-5.71-20.92c0.01,0.02-20.43-18.66-20.43-18.66c-1.14-0.96-0.75-3.5-0.13-5.03
				c1.6-4.49,8.08-8.64,13.63-8.82c4.27-0.17,9-0.16,13.58-0.15l2.48,0.01c4.13-0.01,8.92-3.82,8.92-8.74
				C439.79,65.62,436.36,60.75,430.62,60.75z M504.28,72.15c0.72-2.99,0.11-5.9-1.69-8.19c-1.68-2.13-4.18-3.4-6.68-3.4h-14.97
				l7.41-28.06c1.08-4.82-2.01-9.43-6.99-10.6c-4.8-1.06-9.47,1.54-10.89,6.05c-0.01,0.07-6.98,25.46-8.93,32.61h-4.35
				c-5.01,0-8.91,2.75-10.13,7.17c-0.62,2.74,0.05,5.49,1.8,7.69c1.77,2.22,4.44,3.61,6.96,3.61h0.81l-17.63,66.57
				c-0.67,2.45-0.29,5.18,1.1,7.48c1.28,2.15,3.25,3.6,5.54,4.12c4.88,1.09,9.93-1.93,11.26-6.72c0.01-0.02,16.09-59.97,19.15-71.45
				h17.92C499.34,79.02,503.2,76.45,504.28,72.15z M560.04,69.28c-4.84-6.43-9.92-8.92-18.2-8.92h-20.19
				c-6.15,0-9.36,2.08-10.72,6.97c-0.76,2.4-0.27,5.06,1.43,7.37c1.69,2.32,4.29,3.92,6.34,3.92h19.59c0.71,0,1.35-0.02,1.98-0.04
				c3.08-0.11,3.68-0.02,4.48,1.34c1.49,2.25,0.58,5.2-0.14,7.58c-0.11,0.37-0.21,0.71-0.33,1.05c0,0.02-2.04,7.53-3.02,11.13
				h-27.34c-17.58,0-28.54,9.54-32.58,28.35c-1.39,6.77,0.85,14.58,5.99,20.89c4.25,5.22,9.63,8.32,14.39,8.32h35.19
				c2.89,0,5.24-0.88,7.4-2.8l0.05-0.05l0.06-0.05c1.68-1.68,2.71-3.43,3.23-5.51c-0.01,0.05,15.91-58.92,15.91-58.92
				C565.66,82.14,564.54,75.6,560.04,69.28z M530.85,138.99h-26.36c-1.59,0-2.8-0.57-3.7-1.72c-1.47-1.87-1.89-5.12-1.1-8.29
				c1.12-4.64,5.59-11.05,11.09-11.05h25.77L530.85,138.99z"/>
		</g>
		<path class="st2" d="M883.7,130.23c15.96,0,25.94-4.65,28.73-15.13l1.78-6.71c2.16-8.46,5.28-19.74-15.54-19.74h-14.34
			c0,0-55.63,0-86.3,0l-22.12,82.95c-6.46,24.73,7.16,40.56,29.4,41.77c5.6-21.1,13.79-51.83,22.13-83.14h42.76H883.7z M917.94,5.5
			l-57.38,0.01c-22.75,0-45.6,19.54-51.47,41.57c0,0,60.98,0,101.13,0c40.14,0,56.41,16.52,44.92,59.7
			c-11.49,43.18-39.79,65.01-78.42,65.01c-14.52,0-19.87,0.02-19.87,0.02c-1.88,7.02-6.18,23.19-11.06,41.56h19.42
			c61.63,0,112.95-41.17,124.18-83.14c0,0,6.32-23.78,6.37-23.97C1011.64,46.68,982.28,5.5,917.94,5.5z"/>
	</g>
	<g>
		<g>
			<g>
				<path d="M6.4,366.54c-0.49-10.53-1.11-18.99-1.8-25.25c4.5,2.45,8.55,4.07,12.05,5.1c3.54,0.94,6.54,1.44,9.25,1.44
					c3.41,0,6.21-0.67,8.29-1.88c2.12-1.29,3.16-3.12,3.16-5.6c0-0.88-0.14-1.64-0.28-2.4c-0.24-0.71-0.66-1.63-1.25-2.59
					c-0.57-0.91-1.4-2.06-2.35-3.08l-11.34-12.23c-2.68-2.73-4.49-4.79-5.61-5.95c-2.08-2.58-3.73-4.88-4.95-7.07
					c-1.17-2.17-2.01-4.36-2.6-6.64c-0.53-2.27-0.77-4.58-0.77-7.15c0-2.98,0.42-5.95,1.26-8.84c0.87-2.9,2.17-5.6,3.93-8.08
					c1.71-2.63,3.94-4.72,6.83-6.54c2.86-1.88,5.85-3.07,9.07-3.74c3.24-0.66,6.55-1.04,10.01-1.04c6.75,0,14.15,1.04,22.14,2.9
					c0.02,3.44,0.21,6.56,0.33,9.4c0.18,2.89,0.56,7.87,1.13,14.98c-3.66-1.86-6.98-3.09-10.07-3.91c-3.05-0.7-5.66-1.05-7.89-1.05
					c-3.13,0-5.72,0.68-7.81,2.18c-2.06,1.4-3.07,3.19-3.07,5.3c0,1.01,0.14,1.92,0.36,2.88c0.38,0.96,0.98,2.06,1.89,3.3
					c0.9,1.27,2.08,2.67,3.52,4.12c1.45,1.53,3.71,3.75,6.8,6.72l4.32,4.25c1.29,1.22,2.63,2.79,4.13,4.64
					c1.5,1.84,2.77,3.6,3.96,5.42c1,1.74,1.85,3.36,2.39,4.87c0.65,1.51,1.01,2.93,1.34,4.48c0.25,1.51,0.42,3.14,0.42,4.84
					c0,4.45-0.89,8.69-2.62,12.67c-1.74,4-4.18,7.37-7.33,10.01c-3.07,2.53-6.61,4.32-10.32,5.37c-3.83,1.09-7.8,1.6-12.01,1.6
					C24.41,370,16.23,368.79,6.4,366.54z"/>
			</g>
			<g>
				<path d="M118.73,346.32c-0.69,4.15-1.34,8.13-1.89,12.12l-1.28,8.97c-3.99,1.15-7.04,1.84-9.24,2.13
					c-2.22,0.28-4.34,0.46-6.46,0.46c-3.37,0-6.37-0.38-9.04-1.06c-2.62-0.71-4.77-1.99-6.6-3.95c-1.72-1.91-2.9-4.05-3.61-6.55
					c-0.59-2.48-0.88-5.04-0.88-7.85c0-0.46,0-1.43,0.04-2.63c0-1.25,0.17-4.05,0.44-8.41l1.26-25.6h-9.39
					c0.19-3.46,0.39-7.87,0.54-13.53l0.19-6.81h10.03c0.19-2.33,0.43-7.28,0.83-14.9l10.26-2.53c1.94-0.45,5.93-1.6,12.01-3.41
					c-0.26,6.44-0.48,13.4-0.61,20.85h13.65c-0.28,10.28-0.52,17.02-0.52,20.34h-13.76L104,332.41c-0.08,2.79-0.08,4.61-0.08,5.4
					c0,2.39,0.18,4.4,0.59,5.98c0.45,1.57,1.16,2.67,2.22,3.36c1.13,0.71,2.24,1.07,3.52,1.07c0.92,0,1.94-0.12,3-0.31
					C114.3,347.7,116.09,347.19,118.73,346.32z"/>
			</g>
			<g>
				<path d="M193.38,368.1c-4.59-0.1-8.41-0.16-11.43-0.16c-3.71,0-7.52,0.06-11.26,0.16l-0.14-10.21c-1.4,2.21-2.68,3.9-3.6,5.05
					c-1.05,1.11-2.12,2.05-3.34,2.88c-1.12,0.85-2.43,1.58-3.87,2.22c-1.46,0.62-3.16,1.05-5.05,1.44
					c-1.88,0.28-3.83,0.51-5.71,0.51c-3.23,0-6.18-0.46-9-1.39c-2.81-0.9-5.25-2.51-7.32-4.67c-2.18-2.15-3.65-4.59-4.41-7.34
					c-0.81-2.79-1.18-6-1.18-9.64c0-0.88,0-2.28,0.15-4.14l0.96-16.82c0.24-6.16,0.5-12.99,0.76-20.49
					c0.17-4.64,0.24-8.98,0.24-13.07c4.91,0.1,9.14,0.13,12.63,0.13c3.54,0,7.45-0.03,11.59-0.13l-1.82,28.24
					c-0.24,4.31-0.46,7.2-0.46,8.75c-0.09,1.59-0.09,2.58-0.09,3.17c0,5.15,0.93,8.68,2.65,10.45c1.62,1.76,3.66,2.75,6.05,2.75
					c0.99,0,1.94-0.16,2.88-0.5c0.94-0.37,1.85-0.86,2.72-1.52c0.84-0.66,1.51-1.31,2.12-2.24c0.69-0.9,1.26-2.08,1.87-3.4
					c0.58-1.6,1.06-3.34,1.37-5.25c0.5-2.61,0.76-5.91,1.01-9.87c0.19-2.95,0.36-7.94,0.62-15.12l0.5-15.46
					c5.16,0.1,9.33,0.13,12.65,0.13c3.66,0,7.45-0.03,11.19-0.13c-0.9,12.53-1.66,24.51-2.16,35.81
					C194.04,339.47,193.66,352.79,193.38,368.1z"/>
			</g>
			<g>
				<path d="M274.33,368.1c-4.24-0.1-7.87-0.16-10.71-0.16c-3.15,0-7.05,0.06-11.6,0.16l0.37-9.44c-1.62,1.89-2.93,3.45-4.09,4.55
					c-1.18,1.13-2.6,2.23-4.48,3.33c-1.79,1.08-3.81,1.93-5.88,2.56c-2.03,0.57-4.24,0.9-6.44,0.9c-3.85,0-7.46-0.9-10.85-2.64
					c-3.26-1.69-6.18-4.15-8.46-7.32c-2.44-3.22-4.19-7.02-5.33-11.4c-1.14-4.33-1.74-8.87-1.74-13.59c0-6.61,1-13.17,3.16-19.47
					c2.13-6.36,4.92-11.37,8.33-15.05c3.37-3.64,7.27-6.19,11.55-7.73c4.27-1.51,8.94-2.27,13.94-2.27c3.33,0,7.16,0.39,11.58,1.15
					c0.36-5.92,0.6-14.1,0.76-24.75c4.83,0.12,8.84,0.16,11.89,0.16c4.1,0,8.14-0.04,12.36-0.16c-1.23,14.68-2.23,32.61-3.06,53.75
					C274.76,341.85,274.33,357.64,274.33,368.1z M252.83,310.91c-2.06-0.61-4.11-0.9-5.91-0.9c-3.89,0-7.2,0.93-9.92,2.81
					c-2.72,1.89-4.82,4.78-6.26,8.68c-1.46,3.88-2.15,7.74-2.15,11.55c0,2.82,0.33,5.43,1.18,7.72c0.87,2.29,2.13,4.05,3.8,5.42
					c1.7,1.35,3.59,2.04,5.65,2.04c2.19,0,4.24-0.83,5.98-2.34c1.85-1.53,3.3-3.73,4.5-6.73c1.08-2.98,1.9-6.5,2.32-10.51
					C252.39,324.53,252.73,318.68,252.83,310.91z"/>
			</g>
			<g>
				<path d="M346.87,345.69c-0.47,2.9-1.47,10.16-2.98,21.51c-4.61,1.15-8.6,1.82-11.62,2.2c-3.25,0.36-6.41,0.59-9.64,0.59
					c-4.77,0-9.16-0.44-13.08-1.21c-4.01-0.85-7.43-2.27-10.33-4.37c-2.91-2.06-5.35-4.61-7.3-7.7c-1.96-3.08-3.48-6.8-4.45-10.98
					c-1.08-4.29-1.51-8.68-1.51-13.1c0-6.4,1.04-12.47,3.03-18.55c2-6.07,4.7-10.81,7.85-14.18c3.26-3.42,6.91-5.83,11.14-7.21
					c4.17-1.51,8.51-2.19,12.93-2.19c4.48,0,8.81,0.64,12.97,1.97c4.1,1.26,7.61,3.63,10.51,6.79c2.9,3.28,4.96,6.99,6.13,11.07
					c1.19,4.1,1.84,8.5,1.84,13.24c0,2.78-0.29,5.92-0.73,9.4l-42,0.05c-0.07,0.81-0.07,1.5-0.07,2.14c0,5.28,1.53,9.26,4.59,11.71
					c3.03,2.57,6.83,3.82,11.25,3.82c2.62,0,5.7-0.38,9.03-1.12C337.8,348.83,342,347.46,346.87,345.69z M310.06,321.66h19.74
					c0.06-0.8,0.06-1.48,0.06-2.1c0-2.55-0.39-4.76-1.09-6.56c-0.74-1.82-1.82-3.16-3.15-4.01c-1.36-0.81-2.88-1.18-4.66-1.18
					c-1.2,0-2.38,0.14-3.44,0.62c-1.17,0.49-2.21,1.2-3.03,2.07c-0.94,0.95-1.62,1.93-2.31,3.14c-0.53,1.16-0.96,2.31-1.28,3.45
					C310.63,318.16,310.32,319.74,310.06,321.66z"/>
			</g>
			<g>
				<path d="M359.62,368.1c1.19-11.27,2.03-23.6,2.63-37.18c0.69-13.6,0.97-26.42,1.1-38.48c4.81,0.1,8.95,0.13,12.38,0.13
					c4.04,0,7.91-0.03,11.59-0.13l-0.49,10.03c1.27-1.79,2.46-3.26,3.32-4.34c1.09-1,2.2-2,3.65-3.07c1.41-0.98,2.91-1.83,4.48-2.49
					c1.57-0.65,3.35-1.1,5.23-1.47c1.91-0.38,3.9-0.57,5.93-0.57c2.9,0,5.72,0.39,8.42,1.15c2.74,0.76,5.05,1.82,6.83,3.26
					c1.83,1.43,3.38,3.14,4.57,5.23c1.29,2.1,2.13,4.35,2.55,6.79c0.33,2.39,0.54,4.88,0.54,7.45c0,1.88-0.21,5.98-0.44,12.19
					l-1,26.86c-0.2,5.24-0.29,10.11-0.29,14.64c-4.01-0.1-7.81-0.16-11.36-0.16c-4.79,0-9.12,0.06-12.96,0.16
					c0.33-4.53,0.69-11.23,1.11-20.03c0.43-8.91,0.57-15.07,0.57-18.73c0-5.6-0.87-9.5-2.54-11.71c-1.76-2.22-3.95-3.28-6.57-3.28
					c-2.34,0-4.56,0.91-6.57,2.83c-2.15,1.84-3.65,4.58-4.77,8.19c-1.13,3.62-1.93,9.47-2.42,17.68
					c-0.39,8.19-0.67,16.54-0.87,25.04c-4-0.1-7.87-0.16-11.7-0.16C368.64,367.94,364.29,368,359.62,368.1z"/>
			</g>
			<g>
				<path d="M488.02,346.32c-0.66,4.15-1.35,8.13-1.84,12.12l-1.3,8.97c-3.98,1.15-7.05,1.84-9.24,2.13
					c-2.28,0.28-4.42,0.46-6.47,0.46c-3.36,0-6.39-0.38-9.04-1.06c-2.65-0.71-4.85-1.99-6.53-3.95c-1.76-1.91-3.04-4.05-3.65-6.55
					c-0.57-2.48-0.97-5.04-0.97-7.85c0-0.46,0.09-1.43,0.09-2.63c0.05-1.25,0.23-4.05,0.37-8.41l1.37-25.6h-9.38
					c0.19-3.46,0.39-7.87,0.5-13.53l0.21-6.81h9.93c0.21-2.33,0.51-7.28,0.95-14.9l10.26-2.53c1.82-0.45,5.83-1.6,11.91-3.41
					c-0.25,6.44-0.4,13.4-0.59,20.85h13.71c-0.34,10.28-0.53,17.02-0.53,20.34h-13.78l-0.65,18.46c-0.16,2.79-0.16,4.61-0.16,5.4
					c0,2.39,0.17,4.4,0.55,5.98c0.46,1.57,1.19,2.67,2.29,3.36c1.04,0.71,2.22,1.07,3.51,1.07c0.91,0,1.94-0.12,2.99-0.31
					C483.62,347.7,485.4,347.19,488.02,346.32z"/>
			</g>
			<g>
				<path d="M597.74,343.35c-0.54,2.89-1.12,6.99-1.79,12.17c-0.77,5.2-1.2,9.19-1.38,12.03c-8.58,1.65-16.15,2.46-22.87,2.46
					c-6.45,0-12.46-0.98-18.02-3.05c-5.54-1.95-10.69-5.21-15.3-9.8c-4.59-4.6-7.94-9.96-9.89-16.13c-2-6.15-3-13.12-3-20.74
					c0-8.97,1.29-16.98,4-24.07c2.68-7.21,6.56-13.04,11.56-17.86c5.09-4.75,10.64-8.14,16.61-10.15
					c6.04-2.11,12.21-3.17,18.66-3.17c5.94,0,13.25,0.96,21.95,2.81l0.07,6.28c0.07,2.69,0.19,5.74,0.32,9l0.44,8.5
					c-4.62-1.45-8.44-2.38-11.34-2.84c-2.84-0.49-5.52-0.74-8.07-0.74c-5.34,0-10.18,1.28-14.49,3.97
					c-4.27,2.64-7.71,6.54-10.14,11.59c-2.51,5.1-3.74,10.68-3.74,16.88c0,5.64,1.09,10.46,3.13,14.41c2.06,4.09,4.86,7.2,8.43,9.39
					c3.47,2.2,7.82,3.29,13.05,3.29c2.84,0,5.92-0.3,9.22-0.9C588.49,346.12,592.74,345,597.74,343.35z"/>
			</g>
			<g>
				<path d="M667.67,345.69c-0.48,2.9-1.47,10.16-3.04,21.51c-4.6,1.15-8.52,1.82-11.67,2.2c-3.14,0.36-6.38,0.59-9.58,0.59
					c-4.78,0-9.11-0.44-13.1-1.21c-4.05-0.85-7.42-2.27-10.26-4.37c-2.92-2.06-5.38-4.61-7.32-7.7c-1.97-3.08-3.42-6.8-4.49-10.98
					c-1.08-4.29-1.53-8.68-1.53-13.1c0-6.4,1.07-12.47,3.13-18.55c2.05-6.07,4.59-10.81,7.85-14.18c3.19-3.42,6.91-5.83,11.14-7.21
					c4.15-1.51,8.48-2.19,12.8-2.19c4.61,0,8.93,0.64,13.05,1.97c4.05,1.26,7.64,3.63,10.52,6.79c2.85,3.28,4.92,6.99,6.12,11.07
					c1.19,4.1,1.87,8.5,1.87,13.24c0,2.78-0.31,5.92-0.75,9.4l-42.13,0.05c0,0.81,0,1.5,0,2.14c0,5.28,1.53,9.26,4.62,11.71
					c3.02,2.57,6.79,3.82,11.21,3.82c2.71,0,5.71-0.38,9.07-1.12C658.53,348.83,662.68,347.46,667.67,345.69z M630.81,321.66h19.79
					c0-0.8,0.02-1.48,0.02-2.1c0-2.55-0.38-4.76-1.09-6.56c-0.77-1.82-1.81-3.16-3.17-4.01c-1.36-0.81-2.94-1.18-4.66-1.18
					c-1.2,0-2.33,0.14-3.46,0.62c-1.09,0.49-2.08,1.2-3,2.07c-0.9,0.95-1.61,1.93-2.29,3.14c-0.52,1.16-0.99,2.31-1.25,3.45
					C631.36,318.16,631.11,319.74,630.81,321.66z"/>
			</g>
			<g>
				<path d="M680.39,368.1c1.16-11.27,2.05-23.6,2.61-37.18c0.67-13.6,1.03-26.42,1.2-38.48c4.79,0.1,8.87,0.13,12.33,0.13
					c4.04,0,7.91-0.03,11.57-0.13l-0.51,10.03c1.36-1.79,2.48-3.26,3.41-4.34c0.92-1,2.17-2,3.54-3.07c1.4-0.98,2.92-1.83,4.52-2.49
					c1.55-0.65,3.34-1.1,5.25-1.47c1.83-0.38,3.85-0.57,5.93-0.57c2.88,0,5.67,0.39,8.48,1.15c2.65,0.76,4.94,1.82,6.77,3.26
					c1.82,1.43,3.36,3.14,4.65,5.23c1.18,2.1,2.02,4.35,2.45,6.79c0.35,2.39,0.51,4.88,0.51,7.45c0,1.88-0.08,5.98-0.51,12.19
					l-0.91,26.86c-0.21,5.24-0.29,10.11-0.29,14.64c-4.07-0.1-7.81-0.16-11.3-0.16c-4.79,0-9.13,0.06-13.1,0.16
					c0.39-4.53,0.77-11.23,1.18-20.03c0.39-8.91,0.63-15.07,0.63-18.73c0-5.6-0.87-9.5-2.65-11.71c-1.68-2.22-3.9-3.28-6.5-3.28
					c-2.37,0-4.57,0.91-6.6,2.83c-2.07,1.84-3.66,4.58-4.78,8.19c-1.09,3.62-1.84,9.47-2.38,17.68c-0.4,8.19-0.67,16.54-0.92,25.04
					c-3.94-0.1-7.84-0.16-11.63-0.16C689.31,367.94,685.07,368,680.39,368.1z"/>
			</g>
			<g>
				<path d="M808.81,346.32c-0.7,4.15-1.39,8.13-1.86,12.12l-1.35,8.97c-3.98,1.15-6.99,1.84-9.22,2.13
					c-2.22,0.28-4.31,0.46-6.4,0.46c-3.44,0-6.42-0.38-9.03-1.06c-2.66-0.71-4.83-1.99-6.66-3.95c-1.75-1.91-2.93-4.05-3.58-6.55
					c-0.66-2.48-0.93-5.04-0.93-7.85c0-0.46,0.02-1.43,0.02-2.63c0.07-1.25,0.18-4.05,0.5-8.41l1.26-25.6h-9.39
					c0.17-3.46,0.38-7.87,0.54-13.53l0.17-6.81h9.95c0.25-2.33,0.59-7.28,0.9-14.9l10.34-2.53c1.77-0.45,5.76-1.6,11.93-3.41
					c-0.26,6.44-0.51,13.4-0.61,20.85h13.7c-0.32,10.28-0.51,17.02-0.51,20.34h-13.79l-0.7,18.46c-0.07,2.79-0.12,4.61-0.12,5.4
					c0,2.39,0.21,4.4,0.65,5.98c0.41,1.57,1.13,2.67,2.21,3.36c1.01,0.71,2.18,1.07,3.49,1.07c0.91,0,1.97-0.12,2.96-0.31
					C804.28,347.7,806.17,347.19,808.81,346.32z"/>
			</g>
			<g>
				<path d="M875.68,345.69c-0.58,2.9-1.58,10.16-3.11,21.51c-4.55,1.15-8.44,1.82-11.65,2.2c-3.05,0.36-6.26,0.59-9.51,0.59
					c-4.76,0-9.15-0.44-13.1-1.21c-4.02-0.85-7.4-2.27-10.38-4.37c-2.86-2.06-5.25-4.61-7.22-7.7c-1.96-3.08-3.47-6.8-4.48-10.98
					c-1-4.29-1.51-8.68-1.51-13.1c0-6.4,0.96-12.47,3.03-18.55c1.98-6.07,4.65-10.81,7.86-14.18c3.21-3.42,6.87-5.83,11.1-7.21
					c4.22-1.51,8.5-2.19,12.9-2.19c4.52,0,8.93,0.64,13.03,1.97c4.16,1.26,7.64,3.63,10.54,6.79c2.89,3.28,4.89,6.99,6.1,11.07
					c1.2,4.1,1.82,8.5,1.82,13.24c0,2.78-0.27,5.92-0.7,9.4l-42.1,0.05c0,0.81,0,1.5,0,2.14c0,5.28,1.46,9.26,4.57,11.71
					c3.05,2.57,6.8,3.82,11.24,3.82c2.73,0,5.67-0.38,9.1-1.12C866.57,348.83,870.69,347.46,875.68,345.69z M838.79,321.66h19.75
					c0.09-0.8,0.09-1.48,0.09-2.1c0-2.55-0.33-4.76-1.09-6.56c-0.67-1.82-1.82-3.16-3.25-4.01c-1.27-0.81-2.88-1.18-4.6-1.18
					c-1.21,0-2.39,0.14-3.48,0.62c-1.12,0.49-2.04,1.2-2.95,2.07c-0.97,0.95-1.71,1.93-2.33,3.14c-0.54,1.16-1.01,2.31-1.25,3.45
					C839.39,318.16,839.05,319.74,838.79,321.66z"/>
			</g>
			<g>
				<path d="M888.83,368.1l1.92-32.91l0.54-18.89c0.08-3.39,0.1-6.94,0.1-10.51c0-3.6-0.1-8.03-0.1-13.34
					c4.81,0.1,8.64,0.13,11.45,0.13c3.33,0,7.2-0.03,11.48-0.13l-0.31,8.34c1.59-2.13,2.88-3.8,3.9-4.83
					c0.92-1.01,2.06-2.02,3.41-2.87c1.27-0.9,2.58-1.49,4.01-1.91c1.38-0.45,2.78-0.64,4.3-0.64c1.51,0,3.05,0.29,4.84,0.76
					c0,5.35,0.12,9.79,0.25,13.35l0.47,11.31c-2.17-0.72-4.24-1.1-6.14-1.1c-2.38,0-4.47,0.42-6.25,1.33
					c-1.75,0.83-3.29,2.11-4.61,3.87c-1.35,1.78-2.41,3.98-3.22,6.55c-0.81,2.64-1.41,6.82-1.66,12.48
					c-0.34,5.67-0.51,12.17-0.51,19.43c0,2.54,0.07,5.76,0.24,9.58c-3.82-0.1-7.71-0.16-11.66-0.16
					C897.45,367.94,893.23,368,888.83,368.1z"/>
			</g>
		</g>
	</g>
</g>
</svg>
