<?xml version="1.0" encoding="utf-8"?>
<!-- Generator: Adobe Illustrator 23.0.0, SVG Export Plug-In . SVG Version: 6.00 Build 0)  -->
<svg version="1.1" id="Layer_1" xmlns="http://www.w3.org/2000/svg" xmlns:xlink="http://www.w3.org/1999/xlink" x="0px" y="0px"
	 viewBox="0 0 771 286" style="enable-background:new 0 0 771 286;" xml:space="preserve">
<style type="text/css">
	.st0{fill:#FFFFFF;}
</style>
<g>
	<g>
		<g>
			<path class="st0" d="M476.97,73.35c-0.95,3.44-1.64,6.1-4.73,8.5c-3.17,2.49-6.36,2.92-9.79,2.92h-11.59
				c-0.08,0-4.2,15.29-4.2,15.29c-0.44,1.63-1.81,2.4-3.61,1.98c-1.45-0.35-2.41-2.15-2.06-3.35l13.56-51.01
				c0.26-0.86,0.61-1.72,1.38-2.32c0.68-0.6,1.71-0.6,2.49-0.6h13.82c3.44,0,5.84,1.21,7.55,3.61c1.8,2.49,2.41,4.9,1.55,8.41
				L476.97,73.35z M475.33,52.06c-0.94-1.2-1.97-1.63-3.69-1.63h-11.69l-7.64,28.68H464c1.72,0,2.92-0.42,4.47-1.63
				c1.55-1.21,1.89-2.32,2.31-4.13l4.73-17.17C475.94,54.37,476.2,53.27,475.33,52.06z"/>
			<path class="st0" d="M490.02,73.27c-0.34,1.46-0.78,2.58-0.17,3.95c0.51,1.21,1.63,1.71,2.41,2.32c1.29,0.94,1.11,2.84,1.03,3
				c-1.03,2.57-3.26,2.23-3.6,2.06c-2.58-0.85-4.04-2.66-4.82-3.95c-1.28-2.4-1.54-4.98-0.86-7.47l11.67-43.71
				c0.44-1.54,1.98-2.23,3.53-1.89c1.63,0.42,2.48,2.06,2.14,3.34L490.02,73.27z"/>
			<path class="st0" d="M526.92,82.11c-0.36,0.95-0.52,1.47-1.38,2.07c-0.69,0.42-1.46,0.51-2.24,0.51h-14.33
				c-2.32,0-5.33-1.2-7.05-3.61c-1.71-2.4-2.32-4.89-1.54-7.81l7.05-26.54c0.42-1.55,2.31-2.49,3.61-2.14
				c1.45,0.52,2.48,2.06,2.05,3.61l-6.69,25.07c-0.43,1.72-0.69,3.09,0.17,4.21c0.87,1.12,2.23,1.46,3.95,1.46h11.17l8.58-32.11
				c0.43-1.71,2.23-2.49,3.61-2.14c1.46,0.34,2.49,2.06,2.06,3.52L526.92,82.11z"/>
			<path class="st0" d="M560.55,51.46c-2.06-0.95-3.61-1.03-5.84-0.95c-2.84,0.09-6.09,2.15-6.96,4.55
				c-0.34,0.86-0.68,2.58,0.35,3.44l8.93,8.16c2.41,2.15,2.67,5.41,2.15,8.07c-1.29,5.92-8.33,10.04-14.17,10.04
				c-3.86-0.08-5.92-0.68-8.33-1.46c-1.37-0.43-2.32-2.49-1.72-3.86c0.44-0.86,1.64-2.41,3.7-1.63c1.88,0.77,2.57,1.2,7.38,1.03
				c2.75-0.08,5.83-1.89,7.04-4.21c0.52-0.86,0.69-3.01-0.17-3.78l-8.58-7.91c-2.49-2.23-3.43-5.5-2.66-8.24
				c2.15-8.08,9.7-10.05,14.16-10.05c3.18,0,4.39,0.6,6.53,1.29c1.72,0.68,2.24,2.49,1.72,3.86
				C563.55,51.29,561.58,51.97,560.55,51.46z"/>
			<path class="st0" d="M174.86,45.35c0.01-0.01,0.03-0.02,0.04-0.03c0.02-0.01,0.04-0.03,0.05-0.04L174.86,45.35z M219.52,50.94
				c-3.42-4.79-8.26-7.12-14.81-7.12H180.5c-1.53,0-3.86,0-5.61,1.5c-1.76,1.4-2.52,3.3-3.02,5c-0.03,0.06-23.78,89.41-23.78,89.41
				c-0.42,1.48-0.13,3.32,0.84,4.96c0.99,1.68,2.52,2.87,4.22,3.26c4.14,0.99,7.63-0.97,8.64-4.86c2.35-8.68,5.77-21.3,6.92-25.31
				h18.86c5.87,0,12.14-0.68,18.34-5.53c5.81-4.53,7.23-9.65,8.86-15.58l0.08-0.32c0.01-0.02,7.68-29.04,7.69-29.07
				C224.1,60.9,223.19,56.01,219.52,50.94z M208.55,65.25l-8.28,30.08c-0.76,3.2-1.25,4.53-3.38,6.19
				c-2.35,1.83-4.02,2.45-6.61,2.45h-17.92l12.34-46.32h18.96c2.48,0,3.68,0.51,4.93,2.11C209.49,61.01,209.27,62.17,208.55,65.25z
				 M276.62,50.12c-4.2-4.21-9.42-6.6-14.32-6.6c-9.74,0-16.73,2-21.99,6.3c-5.29,4.17-8.95,10.62-11.48,20.26
				c0-0.01-5.41,19.98-5.41,19.98c-1.28,4.79-0.47,10.75,2.11,15.57c3.85,7.18,11.24,12,18.42,12c12.21,0,20.18-3.09,25.86-10.04
				c3.06-3.83,5.5-9.23,7.44-16.51l5.27-20C284.49,63.66,282.34,56.02,276.62,50.12z M268.23,70.08l-5.27,20
				c-1.02,4.11-2.69,7.26-5.05,9.64c-2.62,2.61-6.4,3.94-11.25,3.94c-5,0-6.23-0.6-8.77-4.27c-1.08-1.63-1.09-4.28-0.01-8.32
				l5.26-20c1.27-4.29,3.15-7.59,5.76-10.06c2.35-2.11,6.36-3.37,10.7-3.37c4.26,0,6.14,0.79,8.04,3.4
				C268.82,62.72,269.72,64.99,268.23,70.08z M329.01,43.82l-4.15,0l-6.05,0.01c-9.97,0-22.95,4.99-26.69,19.04
				c-1.59,5.66,0.46,12.1,5.24,16.39c-0.02-0.02,15.02,13.81,15.02,13.81c0.6,0.53,0.55,3.18-0.05,4.18l-0.03,0.05l-0.03,0.05
				c-1.82,3.48-6.55,6.32-10.6,6.32l-9.85,0.02l-3.94,0.01c-4.93,0-8.25,3.58-8.25,6.94c0,3.6,2.52,7.31,6.74,7.31h7.27h6.22
				c10.9,0,24.23-7.69,26.72-19.13c1.26-6.58-0.33-12.39-4.37-16c0.01,0.02-15.62-14.27-15.62-14.27c-0.87-0.73-0.57-2.68-0.1-3.85
				c1.22-3.43,6.18-6.61,10.42-6.74c3.26-0.13,6.89-0.12,10.39-0.12l1.9,0c3.16,0,6.82-2.92,6.82-6.68
				C336.03,47.55,333.41,43.82,329.01,43.82z M385.36,52.54c0.55-2.29,0.09-4.51-1.3-6.27c-1.28-1.63-3.19-2.6-5.11-2.6H367.5
				l5.66-21.46c0.83-3.69-1.53-7.21-5.34-8.11c-3.67-0.81-7.24,1.17-8.33,4.63c-0.01,0.06-5.34,19.47-6.83,24.95h-3.33
				c-3.84,0-6.81,2.11-7.75,5.49c-0.47,2.09,0.04,4.2,1.38,5.88c1.35,1.7,3.39,2.76,5.32,2.76h0.62l-13.49,50.92
				c-0.51,1.87-0.22,3.97,0.84,5.72c0.98,1.64,2.49,2.76,4.24,3.15c3.74,0.83,7.6-1.48,8.61-5.14c0.01-0.01,12.31-45.88,14.65-54.65
				h13.71C381.58,57.8,384.53,55.83,385.36,52.54z M428.01,50.35c-3.7-4.92-7.59-6.83-13.92-6.83h-15.44c-4.71,0-7.16,1.59-8.2,5.33
				c-0.58,1.84-0.21,3.87,1.1,5.64c1.29,1.77,3.28,3,4.85,3h14.98c0.54,0,1.03-0.02,1.52-0.03c2.35-0.08,2.82-0.02,3.42,1.03
				c1.14,1.72,0.45,3.98-0.11,5.8c-0.09,0.28-0.16,0.54-0.25,0.8c0,0.02-1.56,5.76-2.31,8.51h-20.91c-13.45,0-21.83,7.3-24.92,21.69
				c-1.06,5.18,0.65,11.15,4.58,15.98c3.25,3.99,7.37,6.37,11.01,6.37h26.92c2.21,0,4.01-0.67,5.66-2.14l0.04-0.04l0.04-0.04
				c1.29-1.28,2.07-2.62,2.47-4.21c-0.01,0.04,12.17-45.07,12.17-45.07C432.31,60.19,431.46,55.18,428.01,50.35z M405.68,103.67
				h-20.16c-1.21,0-2.14-0.44-2.83-1.31c-1.12-1.43-1.44-3.92-0.84-6.34c0.86-3.55,4.28-8.45,8.48-8.45h19.71L405.68,103.67z"/>
		</g>
		<path class="st0" d="M675.59,96.97c12.21,0,19.84-3.55,21.98-11.57l1.36-5.13c1.65-6.47,4.04-15.1-11.89-15.1h-10.97
			c0,0-42.55,0-66.01,0l-16.92,63.45c-4.94,18.92,5.48,31.03,22.49,31.95c4.28-16.14,10.55-39.65,16.93-63.59h32.71H675.59z
			 M701.78,1.56l-43.89,0.01c-17.4,0-34.88,14.95-39.37,31.8c0,0,46.64,0,77.36,0c30.71,0,43.15,12.64,34.36,45.67
			c-8.79,33.03-30.44,49.73-59.99,49.73c-11.1,0-15.2,0.01-15.2,0.01c-1.44,5.37-4.73,17.74-8.46,31.79h14.86
			c47.14,0,86.4-31.49,94.99-63.59c0,0,4.83-18.19,4.87-18.33C773.45,33.06,751,1.56,701.78,1.56z"/>
	</g>
	<g>
		<g>
			<g>
				<path class="st0" d="M4.52,277.73c-0.37-8.05-0.85-14.53-1.38-19.32c3.44,1.87,6.54,3.12,9.22,3.9c2.71,0.72,5,1.1,7.08,1.1
					c2.61,0,4.75-0.51,6.34-1.44c1.62-0.99,2.41-2.39,2.41-4.28c0-0.67-0.11-1.26-0.21-1.83c-0.18-0.54-0.5-1.25-0.96-1.98
					c-0.43-0.69-1.07-1.57-1.8-2.36l-8.68-9.35c-2.05-2.09-3.43-3.66-4.29-4.55c-1.59-1.97-2.85-3.73-3.79-5.4
					c-0.9-1.66-1.54-3.34-1.99-5.08c-0.4-1.74-0.59-3.5-0.59-5.47c0-2.28,0.32-4.55,0.96-6.76c0.66-2.21,1.66-4.29,3-6.18
					c1.31-2.01,3.01-3.61,5.22-5c2.19-1.44,4.48-2.35,6.94-2.86c2.48-0.51,5.01-0.8,7.66-0.8c5.16,0,10.83,0.8,16.94,2.22
					c0.01,2.63,0.16,5.02,0.26,7.19c0.14,2.21,0.43,6.02,0.86,11.46c-2.8-1.42-5.34-2.36-7.7-2.99c-2.33-0.54-4.33-0.8-6.03-0.8
					c-2.4,0-4.38,0.52-5.97,1.67c-1.58,1.07-2.35,2.44-2.35,4.05c0,0.77,0.1,1.47,0.28,2.2c0.29,0.74,0.75,1.58,1.45,2.53
					c0.69,0.97,1.59,2.05,2.69,3.15c1.11,1.17,2.84,2.87,5.21,5.14l3.3,3.25c0.99,0.93,2.01,2.13,3.16,3.55
					c1.14,1.41,2.12,2.75,3.03,4.15c0.77,1.33,1.42,2.57,1.83,3.72c0.5,1.15,0.77,2.24,1.02,3.43c0.19,1.16,0.32,2.4,0.32,3.7
					c0,3.41-0.68,6.65-2,9.69c-1.33,3.06-3.2,5.64-5.61,7.66c-2.35,1.93-5.05,3.31-7.9,4.11c-2.93,0.83-5.97,1.22-9.19,1.22
					C18.29,280.37,12.03,279.45,4.52,277.73z"/>
			</g>
			<g>
				<path class="st0" d="M90.44,262.26c-0.53,3.18-1.03,6.22-1.45,9.27l-0.98,6.86c-3.05,0.88-5.39,1.41-7.07,1.63
					c-1.7,0.21-3.32,0.35-4.94,0.35c-2.58,0-4.87-0.29-6.91-0.81c-2-0.54-3.65-1.52-5.05-3.02c-1.32-1.46-2.22-3.1-2.76-5.01
					c-0.45-1.9-0.68-3.86-0.68-6c0-0.35,0-1.09,0.03-2.01c0-0.96,0.13-3.1,0.34-6.43l0.96-19.58h-7.18
					c0.14-2.64,0.3-6.02,0.42-10.35l0.14-5.21h7.67c0.15-1.78,0.33-5.57,0.64-11.4l7.85-1.94c1.48-0.35,4.54-1.22,9.19-2.61
					c-0.2,4.93-0.37,10.25-0.47,15.95h10.44c-0.22,7.86-0.4,13.02-0.4,15.56H79.7l-0.53,14.12c-0.06,2.13-0.06,3.53-0.06,4.13
					c0,1.83,0.14,3.36,0.45,4.57c0.34,1.2,0.89,2.04,1.7,2.57c0.86,0.54,1.72,0.82,2.69,0.82c0.71,0,1.48-0.09,2.29-0.23
					C87.05,263.32,88.42,262.93,90.44,262.26z"/>
			</g>
			<g>
				<path class="st0" d="M147.54,278.92c-3.51-0.08-6.44-0.12-8.75-0.12c-2.84,0-5.76,0.05-8.61,0.12l-0.11-7.81
					c-1.07,1.69-2.05,2.99-2.75,3.86c-0.8,0.85-1.62,1.57-2.56,2.21c-0.86,0.65-1.86,1.21-2.96,1.7c-1.12,0.48-2.41,0.81-3.86,1.1
					c-1.44,0.21-2.93,0.39-4.37,0.39c-2.47,0-4.72-0.35-6.88-1.06c-2.15-0.68-4.02-1.92-5.6-3.57c-1.67-1.64-2.79-3.51-3.37-5.62
					c-0.62-2.13-0.9-4.59-0.9-7.37c0-0.68,0-1.74,0.12-3.16l0.74-12.87c0.19-4.71,0.38-9.94,0.58-15.67c0.13-3.55,0.19-6.87,0.19-10
					c3.76,0.07,6.99,0.1,9.66,0.1c2.71,0,5.7-0.03,8.86-0.1l-1.39,21.6c-0.19,3.3-0.35,5.51-0.35,6.7
					c-0.07,1.22-0.07,1.97-0.07,2.43c0,3.94,0.71,6.64,2.03,7.99c1.24,1.35,2.8,2.11,4.62,2.11c0.76,0,1.49-0.12,2.2-0.38
					c0.72-0.28,1.42-0.66,2.08-1.16c0.64-0.5,1.16-1,1.62-1.72c0.53-0.69,0.96-1.59,1.43-2.6c0.44-1.22,0.81-2.56,1.04-4.02
					c0.38-2,0.58-4.52,0.77-7.55c0.14-2.26,0.28-6.07,0.47-11.57l0.38-11.83c3.94,0.07,7.14,0.1,9.68,0.1c2.8,0,5.7-0.03,8.56-0.1
					c-0.69,9.58-1.27,18.74-1.66,27.4C148.05,257.02,147.75,267.21,147.54,278.92z"/>
			</g>
			<g>
				<path class="st0" d="M209.46,278.92c-3.24-0.08-6.02-0.12-8.19-0.12c-2.41,0-5.39,0.05-8.87,0.12l0.28-7.22
					c-1.24,1.44-2.24,2.64-3.13,3.48c-0.9,0.86-1.99,1.71-3.43,2.55c-1.37,0.82-2.91,1.48-4.5,1.96c-1.55,0.44-3.25,0.69-4.93,0.69
					c-2.94,0-5.71-0.69-8.3-2.02c-2.5-1.29-4.73-3.17-6.47-5.6c-1.86-2.46-3.2-5.37-4.08-8.72c-0.87-3.32-1.33-6.79-1.33-10.4
					c0-5.05,0.76-10.07,2.41-14.89c1.63-4.86,3.77-8.7,6.37-11.51c2.58-2.79,5.56-4.74,8.83-5.91c3.26-1.15,6.84-1.74,10.66-1.74
					c2.55,0,5.47,0.3,8.86,0.88c0.27-4.53,0.46-10.79,0.58-18.93c3.7,0.09,6.76,0.12,9.1,0.12c3.13,0,6.23-0.03,9.45-0.12
					c-0.94,11.23-1.7,24.95-2.34,41.12C209.79,258.84,209.46,270.92,209.46,278.92z M193.02,235.17c-1.57-0.47-3.14-0.69-4.52-0.69
					c-2.97,0-5.51,0.71-7.59,2.15c-2.08,1.44-3.68,3.66-4.79,6.64c-1.12,2.97-1.64,5.92-1.64,8.83c0,2.16,0.25,4.16,0.9,5.91
					c0.67,1.75,1.63,3.1,2.91,4.14c1.3,1.03,2.75,1.56,4.32,1.56c1.67,0,3.24-0.64,4.57-1.79c1.42-1.17,2.52-2.86,3.44-5.15
					c0.82-2.28,1.45-4.97,1.78-8.04C192.68,245.6,192.94,241.12,193.02,235.17z"/>
			</g>
			<g>
				<path class="st0" d="M264.95,261.78c-0.36,2.22-1.13,7.77-2.28,16.46c-3.53,0.88-6.58,1.39-8.89,1.68
					c-2.48,0.28-4.9,0.45-7.37,0.45c-3.65,0-7-0.34-10-0.93c-3.07-0.65-5.68-1.74-7.9-3.34c-2.22-1.58-4.09-3.53-5.58-5.89
					c-1.5-2.36-2.66-5.2-3.4-8.4c-0.82-3.28-1.15-6.64-1.15-10.02c0-4.9,0.8-9.54,2.32-14.19c1.53-4.64,3.59-8.27,6-10.85
					c2.49-2.62,5.29-4.46,8.52-5.51c3.19-1.16,6.51-1.67,9.89-1.67c3.43,0,6.74,0.49,9.92,1.51c3.13,0.96,5.82,2.78,8.04,5.19
					c2.21,2.51,3.8,5.35,4.69,8.47c0.91,3.14,1.4,6.5,1.4,10.13c0,2.13-0.22,4.53-0.56,7.19l-32.13,0.04
					c-0.05,0.62-0.05,1.15-0.05,1.64c0,4.04,1.17,7.08,3.51,8.96c2.32,1.96,5.22,2.92,8.61,2.92c2.01,0,4.36-0.29,6.9-0.86
					C258.01,264.18,261.23,263.13,264.95,261.78z M236.79,243.4h15.1c0.04-0.61,0.04-1.13,0.04-1.6c0-1.95-0.3-3.64-0.83-5.02
					c-0.56-1.39-1.39-2.42-2.41-3.07c-1.04-0.62-2.2-0.9-3.57-0.9c-0.92,0-1.82,0.11-2.63,0.48c-0.89,0.38-1.69,0.92-2.32,1.58
					c-0.72,0.73-1.24,1.48-1.77,2.41c-0.4,0.89-0.73,1.76-0.98,2.64C237.23,240.72,236.99,241.93,236.79,243.4z"/>
			</g>
			<g>
				<path class="st0" d="M274.71,278.92c0.91-8.62,1.55-18.05,2.02-28.44c0.52-10.4,0.74-20.21,0.84-29.43
					c3.68,0.07,6.85,0.1,9.47,0.1c3.09,0,6.05-0.03,8.86-0.1l-0.38,7.67c0.97-1.37,1.88-2.5,2.54-3.32
					c0.83-0.76,1.68-1.53,2.79-2.35c1.08-0.75,2.22-1.4,3.43-1.9c1.2-0.5,2.56-0.84,4-1.13c1.46-0.29,2.98-0.44,4.53-0.44
					c2.22,0,4.38,0.3,6.44,0.88c2.09,0.58,3.86,1.4,5.23,2.5c1.4,1.09,2.59,2.4,3.49,4c0.99,1.6,1.63,3.33,1.95,5.19
					c0.26,1.83,0.41,3.74,0.41,5.7c0,1.44-0.16,4.57-0.34,9.32l-0.77,20.55c-0.15,4.01-0.22,7.73-0.22,11.2
					c-3.07-0.08-5.97-0.12-8.69-0.12c-3.67,0-6.97,0.05-9.91,0.12c0.26-3.47,0.53-8.59,0.85-15.33c0.33-6.82,0.43-11.53,0.43-14.33
					c0-4.29-0.67-7.26-1.94-8.96c-1.35-1.7-3.02-2.51-5.03-2.51c-1.79,0-3.49,0.7-5.02,2.17c-1.64,1.41-2.79,3.5-3.65,6.27
					c-0.87,2.77-1.48,7.25-1.85,13.52c-0.3,6.27-0.51,12.65-0.66,19.16c-3.06-0.08-6.02-0.12-8.95-0.12
					C281.61,278.8,278.28,278.84,274.71,278.92z"/>
			</g>
			<g>
				<path class="st0" d="M372.92,262.26c-0.51,3.18-1.03,6.22-1.41,9.27l-0.99,6.86c-3.05,0.88-5.39,1.41-7.07,1.63
					c-1.74,0.21-3.38,0.35-4.95,0.35c-2.57,0-4.89-0.29-6.91-0.81c-2.02-0.54-3.71-1.52-5-3.02c-1.35-1.46-2.32-3.1-2.79-5.01
					c-0.44-1.9-0.74-3.86-0.74-6c0-0.35,0.07-1.09,0.07-2.01c0.04-0.96,0.18-3.1,0.28-6.43l1.05-19.58h-7.17
					c0.14-2.64,0.3-6.02,0.38-10.35l0.16-5.21h7.6c0.16-1.78,0.39-5.57,0.72-11.4l7.85-1.94c1.4-0.35,4.46-1.22,9.11-2.61
					c-0.19,4.93-0.31,10.25-0.45,15.95h10.48c-0.26,7.86-0.4,13.02-0.4,15.56h-10.54l-0.5,14.12c-0.12,2.13-0.12,3.53-0.12,4.13
					c0,1.83,0.13,3.36,0.42,4.57c0.35,1.2,0.91,2.04,1.75,2.57c0.8,0.54,1.7,0.82,2.68,0.82c0.69,0,1.48-0.09,2.29-0.23
					C369.56,263.32,370.92,262.93,372.92,262.26z"/>
			</g>
			<g>
				<path class="st0" d="M456.85,259.99c-0.41,2.21-0.86,5.35-1.37,9.31c-0.59,3.98-0.92,7.03-1.05,9.2
					c-6.56,1.26-12.35,1.88-17.5,1.88c-4.93,0-9.53-0.75-13.78-2.33c-4.24-1.5-8.18-3.99-11.71-7.49
					c-3.51-3.52-6.08-7.62-7.57-12.34c-1.53-4.71-2.3-10.04-2.3-15.87c0-6.86,0.99-12.99,3.06-18.42c2.05-5.52,5.02-9.97,8.84-13.66
					c3.89-3.63,8.14-6.22,12.71-7.77c4.62-1.61,9.34-2.43,14.27-2.43c4.54,0,10.14,0.73,16.79,2.15l0.05,4.8
					c0.06,2.06,0.15,4.39,0.25,6.88l0.34,6.5c-3.53-1.11-6.45-1.82-8.68-2.17c-2.18-0.37-4.22-0.57-6.17-0.57
					c-4.09,0-7.79,0.98-11.08,3.04c-3.27,2.02-5.9,5-7.76,8.87c-1.92,3.9-2.86,8.17-2.86,12.92c0,4.31,0.84,8,2.4,11.02
					c1.57,3.13,3.72,5.51,6.45,7.18c2.66,1.68,5.98,2.52,9.98,2.52c2.18,0,4.53-0.23,7.05-0.69
					C449.78,262.11,453.02,261.25,456.85,259.99z"/>
			</g>
			<g>
				<path class="st0" d="M510.34,261.78c-0.37,2.22-1.12,7.77-2.33,16.46c-3.52,0.88-6.52,1.39-8.93,1.68
					c-2.4,0.28-4.88,0.45-7.32,0.45c-3.66,0-6.97-0.34-10.02-0.93c-3.1-0.65-5.67-1.74-7.85-3.34c-2.23-1.58-4.11-3.53-5.6-5.89
					c-1.51-2.36-2.62-5.2-3.43-8.4c-0.82-3.28-1.17-6.64-1.17-10.02c0-4.9,0.82-9.54,2.39-14.19c1.57-4.64,3.51-8.27,6-10.85
					c2.44-2.62,5.29-4.46,8.52-5.51c3.17-1.16,6.49-1.67,9.79-1.67c3.52,0,6.83,0.49,9.99,1.51c3.1,0.96,5.84,2.78,8.05,5.19
					c2.18,2.51,3.77,5.35,4.68,8.47c0.91,3.14,1.43,6.5,1.43,10.13c0,2.13-0.24,4.53-0.57,7.19l-32.22,0.04c0,0.62,0,1.15,0,1.64
					c0,4.04,1.17,7.08,3.54,8.96c2.31,1.96,5.2,2.92,8.57,2.92c2.07,0,4.37-0.29,6.94-0.86
					C503.35,264.18,506.52,263.13,510.34,261.78z M482.15,243.4h15.14c0-0.61,0.02-1.13,0.02-1.6c0-1.95-0.29-3.64-0.83-5.02
					c-0.59-1.39-1.39-2.42-2.43-3.07c-1.04-0.62-2.25-0.9-3.56-0.9c-0.92,0-1.78,0.11-2.65,0.48c-0.83,0.38-1.59,0.92-2.3,1.58
					c-0.69,0.73-1.23,1.48-1.75,2.41c-0.4,0.89-0.76,1.76-0.96,2.64C482.57,240.72,482.37,241.93,482.15,243.4z"/>
			</g>
			<g>
				<path class="st0" d="M520.07,278.92c0.89-8.62,1.57-18.05,2-28.44c0.51-10.4,0.79-20.21,0.92-29.43c3.67,0.07,6.78,0.1,9.43,0.1
					c3.09,0,6.05-0.03,8.85-0.1l-0.39,7.67c1.04-1.37,1.89-2.5,2.61-3.32c0.7-0.76,1.66-1.53,2.71-2.35c1.07-0.75,2.23-1.4,3.46-1.9
					c1.18-0.5,2.55-0.84,4.01-1.13c1.4-0.29,2.94-0.44,4.53-0.44c2.2,0,4.34,0.3,6.49,0.88c2.03,0.58,3.78,1.4,5.18,2.5
					c1.4,1.09,2.57,2.4,3.55,4c0.91,1.6,1.55,3.33,1.88,5.19c0.26,1.83,0.39,3.74,0.39,5.7c0,1.44-0.06,4.57-0.39,9.32l-0.7,20.55
					c-0.16,4.01-0.22,7.73-0.22,11.2c-3.11-0.08-5.98-0.12-8.65-0.12c-3.67,0-6.99,0.05-10.02,0.12c0.3-3.47,0.59-8.59,0.91-15.33
					c0.3-6.82,0.48-11.53,0.48-14.33c0-4.29-0.67-7.26-2.03-8.96c-1.28-1.7-2.98-2.51-4.97-2.51c-1.81,0-3.5,0.7-5.05,2.17
					c-1.58,1.41-2.8,3.5-3.66,6.27c-0.84,2.77-1.41,7.25-1.82,13.52c-0.3,6.27-0.51,12.65-0.7,19.16c-3.01-0.08-5.99-0.12-8.89-0.12
					C526.9,278.8,523.65,278.84,520.07,278.92z"/>
			</g>
			<g>
				<path class="st0" d="M618.3,262.26c-0.54,3.18-1.06,6.22-1.42,9.27l-1.03,6.86c-3.04,0.88-5.35,1.41-7.06,1.63
					c-1.7,0.21-3.3,0.35-4.9,0.35c-2.63,0-4.91-0.29-6.91-0.81c-2.04-0.54-3.7-1.52-5.1-3.02c-1.34-1.46-2.24-3.1-2.74-5.01
					c-0.5-1.9-0.71-3.86-0.71-6c0-0.35,0.01-1.09,0.01-2.01c0.05-0.96,0.14-3.1,0.38-6.43l0.97-19.58h-7.18
					c0.13-2.64,0.29-6.02,0.41-10.35l0.13-5.21h7.61c0.19-1.78,0.45-5.57,0.69-11.4l7.91-1.94c1.36-0.35,4.41-1.22,9.12-2.61
					c-0.2,4.93-0.39,10.25-0.47,15.95h10.48c-0.24,7.86-0.39,13.02-0.39,15.56h-10.55l-0.53,14.12c-0.06,2.13-0.09,3.53-0.09,4.13
					c0,1.83,0.16,3.36,0.5,4.57c0.32,1.2,0.87,2.04,1.69,2.57c0.77,0.54,1.67,0.82,2.67,0.82c0.69,0,1.51-0.09,2.26-0.23
					C614.83,263.32,616.28,262.93,618.3,262.26z"/>
			</g>
			<g>
				<path class="st0" d="M669.45,261.78c-0.44,2.22-1.21,7.77-2.38,16.46c-3.48,0.88-6.45,1.39-8.91,1.68
					c-2.34,0.28-4.79,0.45-7.28,0.45c-3.64,0-7-0.34-10.02-0.93c-3.08-0.65-5.66-1.74-7.94-3.34c-2.19-1.58-4.01-3.53-5.52-5.89
					c-1.5-2.36-2.66-5.2-3.42-8.4c-0.77-3.28-1.15-6.64-1.15-10.02c0-4.9,0.73-9.54,2.32-14.19c1.52-4.64,3.55-8.27,6.01-10.85
					c2.46-2.62,5.26-4.46,8.49-5.51c3.22-1.16,6.5-1.67,9.87-1.67c3.46,0,6.83,0.49,9.97,1.51c3.18,0.96,5.84,2.78,8.07,5.19
					c2.21,2.51,3.74,5.35,4.67,8.47c0.92,3.14,1.4,6.5,1.4,10.13c0,2.13-0.21,4.53-0.54,7.19l-32.2,0.04c0,0.62,0,1.15,0,1.64
					c0,4.04,1.12,7.08,3.5,8.96c2.33,1.96,5.2,2.92,8.6,2.92c2.09,0,4.34-0.29,6.96-0.86C662.49,264.18,665.63,263.13,669.45,261.78
					z M641.23,243.4h15.11c0.07-0.61,0.07-1.13,0.07-1.6c0-1.95-0.25-3.64-0.83-5.02c-0.51-1.39-1.4-2.42-2.49-3.07
					c-0.97-0.62-2.2-0.9-3.52-0.9c-0.93,0-1.83,0.11-2.66,0.48c-0.86,0.38-1.56,0.92-2.26,1.58c-0.74,0.73-1.31,1.48-1.78,2.41
					c-0.41,0.89-0.77,1.76-0.96,2.64C641.69,240.72,641.43,241.93,641.23,243.4z"/>
			</g>
			<g>
				<path class="st0" d="M679.51,278.92l1.47-25.17l0.41-14.45c0.06-2.59,0.08-5.31,0.08-8.04c0-2.75-0.08-6.14-0.08-10.21
					c3.68,0.07,6.61,0.1,8.76,0.1c2.54,0,5.51-0.03,8.78-0.1l-0.24,6.38c1.22-1.63,2.2-2.91,2.98-3.7c0.71-0.77,1.58-1.54,2.61-2.2
					c0.97-0.69,1.97-1.14,3.07-1.46c1.06-0.35,2.13-0.49,3.29-0.49c1.15,0,2.33,0.22,3.71,0.58c0,4.09,0.09,7.49,0.19,10.21
					l0.36,8.65c-1.66-0.55-3.24-0.84-4.7-0.84c-1.82,0-3.42,0.32-4.78,1.02c-1.34,0.64-2.51,1.62-3.52,2.96
					c-1.03,1.36-1.84,3.05-2.46,5.01c-0.62,2.02-1.08,5.22-1.27,9.55c-0.26,4.34-0.39,9.31-0.39,14.87c0,1.95,0.06,4.41,0.19,7.33
					c-2.92-0.08-5.9-0.12-8.92-0.12C686.11,278.8,682.88,278.84,679.51,278.92z"/>
			</g>
		</g>
	</g>
</g>
</svg>
